<?xml version="1.0" encoding="UTF-8" standalone="no"?>
<!-- Created with Inkscape (http://www.inkscape.org/) -->

<svg
   xmlns:dc="http://purl.org/dc/elements/1.1/"
   xmlns:cc="http://creativecommons.org/ns#"
   xmlns:rdf="http://www.w3.org/1999/02/22-rdf-syntax-ns#"
   xmlns:svg="http://www.w3.org/2000/svg"
   xmlns="http://www.w3.org/2000/svg"
   xmlns:xlink="http://www.w3.org/1999/xlink"
   xmlns:sodipodi="http://sodipodi.sourceforge.net/DTD/sodipodi-0.dtd"
   xmlns:inkscape="http://www.inkscape.org/namespaces/inkscape"
   id="svg2"
   sodipodi:version="0.32"
   inkscape:version="0.48.4 r9939"
   width="100"
   height="100"
   version="1.0"
   sodipodi:docname="clock-face.svg"
   inkscape:output_extension="org.inkscape.output.svg.inkscape">
  <sodipodi:namedview
     inkscape:window-height="1027"
     inkscape:window-width="1680"
     inkscape:pageshadow="2"
     inkscape:pageopacity="0.0"
     guidetolerance="10.0"
     gridtolerance="10.0"
     objecttolerance="10.0"
     borderopacity="1.0"
     bordercolor="#666666"
     pagecolor="#ffffff"
     id="base"
     width="256px"
     inkscape:zoom="8.29"
     inkscape:cx="50"
     inkscape:cy="50"
     inkscape:window-x="-2"
     inkscape:window-y="-5"
     inkscape:current-layer="svg2"
     showgrid="false"
     showguides="true"
     inkscape:guide-bbox="true"
     inkscape:snap-global="false"
     inkscape:window-maximized="1">
    <sodipodi:guide
       orientation="1,0"
       position="50.060753,76.792224"
       id="guide3442" />
    <sodipodi:guide
       orientation="0,1"
       position="12.758202,49.939247"
       id="guide3444" />
  </sodipodi:namedview>
  <metadata
     id="metadata7">
    <rdf:RDF>
      <cc:Work
         rdf:about="">
        <dc:format>image/svg+xml</dc:format>
        <dc:type
           rdf:resource="http://purl.org/dc/dcmitype/StillImage" />
      </cc:Work>
    </rdf:RDF>
  </metadata>
  <defs
     id="defs5">
    <linearGradient
       id="linearGradient3917">
      <stop
         style="stop-color:#ffffff;stop-opacity:0.66666675;"
         offset="0"
         id="stop3919" />
      <stop
         style="stop-color:#f9f9f9;stop-opacity:0;"
         offset="1"
         id="stop3921" />
    </linearGradient>
    <linearGradient
       id="linearGradient4219">
      <stop
         style="stop-color:#b8b8b8;stop-opacity:1;"
         offset="0"
         id="stop4221" />
      <stop
         style="stop-color:#000000;stop-opacity:1;"
         offset="1"
         id="stop4223" />
    </linearGradient>
    <linearGradient
       id="linearGradient3884">
      <stop
         id="stop3886"
         offset="0"
         style="stop-color:#f0edf0;stop-opacity:1;" />
      <stop
         style="stop-color:#aaa08d;stop-opacity:0.37121212;"
         offset="0.85795188"
         id="stop3888" />
      <stop
         style="stop-color:#7e4d19;stop-opacity:0.5271318;"
         offset="0.89370251"
         id="stop3890" />
      <stop
         id="stop3866"
         offset="0.96392035"
         style="stop-color:#71400b;stop-opacity:0.59090906;" />
      <stop
         id="stop3892"
         offset="1"
         style="stop-color:#3d3d3d;stop-opacity:0.37209302;" />
    </linearGradient>
    <linearGradient
       id="linearGradient3852">
      <stop
         id="stop3854"
         offset="0"
         style="stop-color:#a2bb16;stop-opacity:1;" />
      <stop
         id="stop3856"
         offset="1"
         style="stop-color:#5f6e0a;stop-opacity:1;" />
    </linearGradient>
    <inkscape:perspective
       sodipodi:type="inkscape:persp3d"
       inkscape:vp_x="0 : 58.882721 : 1"
       inkscape:vp_y="0 : 1000 : 0"
       inkscape:vp_z="117.76544 : 58.882721 : 1"
       inkscape:persp3d-origin="58.882721 : 39.255147 : 1"
       id="perspective69" />
    <linearGradient
       id="linearGradient2869">
      <stop
         id="stop2871"
         offset="0"
         style="stop-color:#627e12;stop-opacity:1;" />
      <stop
         id="stop2873"
         offset="1"
         style="stop-color:#f0ffaa;stop-opacity:1;" />
    </linearGradient>
    <linearGradient
       id="linearGradient2859">
      <stop
         style="stop-color:#141800;stop-opacity:1;"
         offset="0"
         id="stop2861" />
      <stop
         style="stop-color:#9da43c;stop-opacity:1;"
         offset="1"
         id="stop2863" />
    </linearGradient>
    <linearGradient
       id="linearGradient2851">
      <stop
         style="stop-color:black;stop-opacity:1;"
         offset="0"
         id="stop2853" />
      <stop
         style="stop-color:#e1cece;stop-opacity:1"
         offset="1"
         id="stop2855" />
    </linearGradient>
    <linearGradient
       id="linearGradient2837">
      <stop
         style="stop-color:#000000;stop-opacity:0.56589144;"
         offset="0"
         id="stop2839" />
      <stop
         style="stop-color:#000000;stop-opacity:0;"
         offset="1"
         id="stop2841" />
    </linearGradient>
    <linearGradient
       id="linearGradient2827">
      <stop
         style="stop-color:#f0edf0;stop-opacity:1;"
         offset="0"
         id="stop2829" />
      <stop
         id="stop3882"
         offset="0.25"
         style="stop-color:#f3f1f3;stop-opacity:1;" />
      <stop
         id="stop3880"
         offset="0.5"
         style="stop-color:#969696;stop-opacity:1;" />
      <stop
         style="stop-color:#ffffff;stop-opacity:1;"
         offset="1"
         id="stop2831" />
    </linearGradient>
    <linearGradient
       id="linearGradient2817">
      <stop
         style="stop-color:#000000;stop-opacity:1;"
         offset="0"
         id="stop2819" />
      <stop
         style="stop-color:#715100;stop-opacity:1;"
         offset="1"
         id="stop2821" />
    </linearGradient>
    <linearGradient
       id="linearGradient2807">
      <stop
         style="stop-color:#ffffff;stop-opacity:1;"
         offset="0"
         id="stop2809" />
      <stop
         style="stop-color:black;stop-opacity:1"
         offset="1"
         id="stop2811" />
    </linearGradient>
    <linearGradient
       id="linearGradient2799">
      <stop
         id="stop2801"
         offset="0"
         style="stop-color:#fff287;stop-opacity:1" />
      <stop
         id="stop2803"
         offset="1"
         style="stop-color:#776e16;stop-opacity:1;" />
    </linearGradient>
    <linearGradient
       id="linearGradient2785">
      <stop
         style="stop-color:#ffffff;stop-opacity:1;"
         offset="0"
         id="stop2787" />
      <stop
         style="stop-color:#000000;stop-opacity:1;"
         offset="1"
         id="stop2789" />
    </linearGradient>
    <linearGradient
       id="linearGradient2775">
      <stop
         style="stop-color:#ededed;stop-opacity:1;"
         offset="0"
         id="stop2777" />
      <stop
         style="stop-color:#acacac;stop-opacity:1;"
         offset="1"
         id="stop2779" />
    </linearGradient>
    <linearGradient
       inkscape:collect="always"
       xlink:href="#linearGradient2775"
       id="linearGradient2781"
       x1="67.546875"
       y1="123.96243"
       x2="62.544846"
       y2="6.2219706"
       gradientUnits="userSpaceOnUse" />
    <radialGradient
       inkscape:collect="always"
       xlink:href="#linearGradient2785"
       id="radialGradient2793"
       cx="66.809158"
       cy="63.389313"
       fx="66.809158"
       fy="63.389313"
       r="56.595421"
       gradientUnits="userSpaceOnUse" />
    <radialGradient
       inkscape:collect="always"
       xlink:href="#linearGradient2799"
       id="radialGradient2797"
       gradientUnits="userSpaceOnUse"
       cx="66.809158"
       cy="63.389313"
       fx="66.809158"
       fy="63.389313"
       r="56.595421"
       gradientTransform="matrix(0.766437,-0.0440806,0.04407653,0.766366,12.81011,17.75493)" />
    <linearGradient
       inkscape:collect="always"
       xlink:href="#linearGradient2807"
       id="linearGradient2813"
       x1="68.198151"
       y1="123.07023"
       x2="66.931297"
       y2="6.0159431"
       gradientUnits="userSpaceOnUse"
       spreadMethod="pad" />
    <linearGradient
       inkscape:collect="always"
       xlink:href="#linearGradient2817"
       id="linearGradient2823"
       x1="-61.801529"
       y1="74.496353"
       x2="-36.798359"
       y2="100.85715"
       gradientUnits="userSpaceOnUse"
       gradientTransform="translate(135.5725,5.129771)" />
    <radialGradient
       inkscape:collect="always"
       xlink:href="#linearGradient2827"
       id="radialGradient2833"
       cx="64.122139"
       cy="44.580154"
       fx="64.122139"
       fy="44.580154"
       r="28.213741"
       gradientTransform="matrix(0.919118,0.03160355,-0.02365338,0.687905,6.240761,11.88674)"
       gradientUnits="userSpaceOnUse" />
    <radialGradient
       inkscape:collect="always"
       xlink:href="#linearGradient2837"
       id="radialGradient2843"
       cx="56.183205"
       cy="38.961834"
       fx="56.183205"
       fy="38.961834"
       r="7.0839696"
       gradientTransform="matrix(1,0,0,0.87931,0,4.70229)"
       gradientUnits="userSpaceOnUse" />
    <radialGradient
       inkscape:collect="always"
       xlink:href="#linearGradient2837"
       id="radialGradient2847"
       gradientUnits="userSpaceOnUse"
       gradientTransform="matrix(1,0,0,0.87931,0,4.70229)"
       cx="56.183205"
       cy="38.961834"
       fx="56.183205"
       fy="38.961834"
       r="7.0839696" />
    <linearGradient
       inkscape:collect="always"
       xlink:href="#linearGradient2851"
       id="linearGradient2857"
       x1="90.625954"
       y1="125.58015"
       x2="36.152664"
       y2="1.1984749"
       gradientUnits="userSpaceOnUse" />
    <linearGradient
       inkscape:collect="always"
       xlink:href="#linearGradient2859"
       id="linearGradient2865"
       x1="71.549622"
       y1="130.80916"
       x2="51.809155"
       y2="1.1984749"
       gradientUnits="userSpaceOnUse" />
    <linearGradient
       inkscape:collect="always"
       xlink:href="#linearGradient2869"
       id="linearGradient2875"
       gradientUnits="userSpaceOnUse"
       x1="97.300835"
       y1="120.35633"
       x2="63.389313"
       y2="75.202576" />
    <linearGradient
       spreadMethod="reflect"
       inkscape:collect="always"
       xlink:href="#linearGradient2859"
       id="linearGradient2889"
       gradientUnits="userSpaceOnUse"
       x1="47.849701"
       y1="42.803459"
       x2="51.809155"
       y2="1.1984749"
       gradientTransform="matrix(0.74548122,0,0,0.74548122,2.6292766,3.4234298)" />
    <linearGradient
       inkscape:collect="always"
       xlink:href="#linearGradient2775"
       id="linearGradient2895"
       gradientUnits="userSpaceOnUse"
       x1="67.546875"
       y1="123.96243"
       x2="62.544846"
       y2="6.2219706" />
    <linearGradient
       inkscape:collect="always"
       xlink:href="#linearGradient2807"
       id="linearGradient2899"
       gradientUnits="userSpaceOnUse"
       spreadMethod="pad"
       x1="68.198151"
       y1="123.07023"
       x2="66.931297"
       y2="6.0159431" />
    <linearGradient
       inkscape:collect="always"
       xlink:href="#linearGradient2817"
       id="linearGradient2901"
       gradientUnits="userSpaceOnUse"
       gradientTransform="translate(135.5725,5.129771)"
       x1="-61.801529"
       y1="74.496353"
       x2="-36.798359"
       y2="100.85715" />
    <linearGradient
       inkscape:collect="always"
       xlink:href="#linearGradient2869"
       id="linearGradient2909"
       gradientUnits="userSpaceOnUse"
       x1="97.300835"
       y1="120.35633"
       x2="63.389313"
       y2="75.202576" />
    <linearGradient
       y2="-7.4748664"
       x2="16.093008"
       y1="-7.4748664"
       x1="13.514812"
       spreadMethod="reflect"
       gradientUnits="userSpaceOnUse"
       id="linearGradient2595"
       xlink:href="#linearGradient3578"
       inkscape:collect="always" />
    <linearGradient
       y2="-7.4748664"
       x2="16.093008"
       y1="-7.4748664"
       x1="13.514812"
       spreadMethod="reflect"
       gradientUnits="userSpaceOnUse"
       id="linearGradient2593"
       xlink:href="#linearGradient3578"
       inkscape:collect="always" />
    <linearGradient
       y2="-7.4748664"
       x2="16.093008"
       y1="-7.4748664"
       x1="13.514812"
       spreadMethod="reflect"
       gradientUnits="userSpaceOnUse"
       id="linearGradient2591"
       xlink:href="#linearGradient3578"
       inkscape:collect="always" />
    <linearGradient
       y2="-7.4748664"
       x2="16.093008"
       y1="-7.4748664"
       x1="13.514812"
       spreadMethod="reflect"
       gradientUnits="userSpaceOnUse"
       id="linearGradient2589"
       xlink:href="#linearGradient3578"
       inkscape:collect="always" />
    <linearGradient
       y2="-7.4748664"
       x2="16.093008"
       y1="-7.4748664"
       x1="13.514812"
       spreadMethod="reflect"
       gradientUnits="userSpaceOnUse"
       id="linearGradient2587"
       xlink:href="#linearGradient3578"
       inkscape:collect="always" />
    <linearGradient
       y2="-7.4748664"
       x2="16.093008"
       y1="-7.4748664"
       x1="13.514812"
       spreadMethod="reflect"
       gradientUnits="userSpaceOnUse"
       id="linearGradient2585"
       xlink:href="#linearGradient3578"
       inkscape:collect="always" />
    <linearGradient
       y2="-7.4748664"
       x2="16.093008"
       y1="-7.4748664"
       x1="13.514812"
       spreadMethod="reflect"
       gradientUnits="userSpaceOnUse"
       id="linearGradient2583"
       xlink:href="#linearGradient3578"
       inkscape:collect="always" />
    <linearGradient
       y2="-7.4748664"
       x2="16.093008"
       y1="-7.4748664"
       x1="13.514812"
       spreadMethod="reflect"
       gradientUnits="userSpaceOnUse"
       id="linearGradient2581"
       xlink:href="#linearGradient3578"
       inkscape:collect="always" />
    <linearGradient
       y2="-7.4748664"
       x2="16.093008"
       y1="-7.4748664"
       x1="13.514812"
       spreadMethod="reflect"
       gradientUnits="userSpaceOnUse"
       id="linearGradient2579"
       xlink:href="#linearGradient3578"
       inkscape:collect="always" />
    <linearGradient
       y2="-7.4748664"
       x2="16.093008"
       y1="-7.4748664"
       x1="13.514812"
       spreadMethod="reflect"
       gradientUnits="userSpaceOnUse"
       id="linearGradient2577"
       xlink:href="#linearGradient3578"
       inkscape:collect="always" />
    <linearGradient
       y2="-7.4748664"
       x2="16.093008"
       y1="-7.4748664"
       x1="13.514812"
       spreadMethod="reflect"
       gradientUnits="userSpaceOnUse"
       id="linearGradient2575"
       xlink:href="#linearGradient3578"
       inkscape:collect="always" />
    <linearGradient
       y2="-7.4748664"
       x2="16.093008"
       y1="-7.4748664"
       x1="13.514812"
       spreadMethod="reflect"
       gradientUnits="userSpaceOnUse"
       id="linearGradient2573"
       xlink:href="#linearGradient3578"
       inkscape:collect="always" />
    <linearGradient
       y2="-7.4748664"
       x2="16.093008"
       y1="-7.4748664"
       x1="13.514812"
       spreadMethod="reflect"
       gradientUnits="userSpaceOnUse"
       id="linearGradient2571"
       xlink:href="#linearGradient3578"
       inkscape:collect="always" />
    <linearGradient
       y2="-7.4748664"
       x2="16.093008"
       y1="-7.4748664"
       x1="13.514812"
       spreadMethod="reflect"
       gradientUnits="userSpaceOnUse"
       id="linearGradient2569"
       xlink:href="#linearGradient3578"
       inkscape:collect="always" />
    <linearGradient
       y2="-7.4748664"
       x2="16.093008"
       y1="-7.4748664"
       x1="13.514812"
       spreadMethod="reflect"
       gradientUnits="userSpaceOnUse"
       id="linearGradient2567"
       xlink:href="#linearGradient3578"
       inkscape:collect="always" />
    <linearGradient
       y2="-7.4748664"
       x2="16.093008"
       y1="-7.4748664"
       x1="13.514812"
       spreadMethod="reflect"
       gradientUnits="userSpaceOnUse"
       id="linearGradient2565"
       xlink:href="#linearGradient3578"
       inkscape:collect="always" />
    <linearGradient
       y2="-7.4748664"
       x2="16.093008"
       y1="-7.4748664"
       x1="13.514812"
       spreadMethod="reflect"
       gradientUnits="userSpaceOnUse"
       id="linearGradient2563"
       xlink:href="#linearGradient3578"
       inkscape:collect="always" />
    <linearGradient
       y2="-7.4748664"
       x2="16.093008"
       y1="-7.4748664"
       x1="13.514812"
       spreadMethod="reflect"
       gradientUnits="userSpaceOnUse"
       id="linearGradient2561"
       xlink:href="#linearGradient3578"
       inkscape:collect="always" />
    <linearGradient
       y2="-7.4748664"
       x2="16.093008"
       y1="-7.4748664"
       x1="13.514812"
       spreadMethod="reflect"
       gradientUnits="userSpaceOnUse"
       id="linearGradient2559"
       xlink:href="#linearGradient3578"
       inkscape:collect="always" />
    <linearGradient
       y2="-7.4748664"
       x2="16.093008"
       y1="-7.4748664"
       x1="13.514812"
       spreadMethod="reflect"
       gradientUnits="userSpaceOnUse"
       id="linearGradient2557"
       xlink:href="#linearGradient3578"
       inkscape:collect="always" />
    <linearGradient
       y2="-7.4748664"
       x2="16.093008"
       y1="-7.4748664"
       x1="13.514812"
       spreadMethod="reflect"
       gradientUnits="userSpaceOnUse"
       id="linearGradient2555"
       xlink:href="#linearGradient3578"
       inkscape:collect="always" />
    <linearGradient
       y2="-7.4748664"
       x2="16.093008"
       y1="-7.4748664"
       x1="13.514812"
       spreadMethod="reflect"
       gradientUnits="userSpaceOnUse"
       id="linearGradient2553"
       xlink:href="#linearGradient3578"
       inkscape:collect="always" />
    <linearGradient
       y2="-7.4748664"
       x2="16.093008"
       y1="-7.4748664"
       x1="13.514812"
       spreadMethod="reflect"
       gradientUnits="userSpaceOnUse"
       id="linearGradient2551"
       xlink:href="#linearGradient3578"
       inkscape:collect="always" />
    <linearGradient
       y2="-7.4748664"
       x2="16.093008"
       y1="-2.2096405"
       x1="15.650429"
       spreadMethod="reflect"
       gradientUnits="userSpaceOnUse"
       id="linearGradient3610"
       xlink:href="#linearGradient3578"
       inkscape:collect="always" />
    <linearGradient
       y2="-7.4748664"
       x2="16.093008"
       y1="-6.4087667"
       x1="10.621114"
       spreadMethod="reflect"
       gradientUnits="userSpaceOnUse"
       id="linearGradient3608"
       xlink:href="#linearGradient3578"
       inkscape:collect="always" />
    <linearGradient
       y2="-1.5134122"
       x2="9.7181683"
       y1="-5.8865957"
       x1="11.186799"
       spreadMethod="reflect"
       gradientUnits="userSpaceOnUse"
       id="linearGradient3606"
       xlink:href="#linearGradient3578"
       inkscape:collect="always" />
    <linearGradient
       y2="-4.5158963"
       x2="12.916467"
       y1="-3.7543969"
       x1="7.7709298"
       spreadMethod="reflect"
       gradientUnits="userSpaceOnUse"
       id="linearGradient3604"
       xlink:href="#linearGradient3578"
       inkscape:collect="always" />
    <linearGradient
       y2="-3.7326398"
       x2="14.93988"
       y1="-2.2749119"
       x1="17.082983"
       spreadMethod="reflect"
       gradientUnits="userSpaceOnUse"
       id="linearGradient3602"
       xlink:href="#linearGradient3578"
       inkscape:collect="always" />
    <linearGradient
       y2="-1.9920692"
       x2="17.376678"
       y1="-6.2564669"
       x1="15.58174"
       spreadMethod="reflect"
       gradientUnits="userSpaceOnUse"
       id="linearGradient3600"
       xlink:href="#linearGradient3578"
       inkscape:collect="always" />
    <linearGradient
       y2="-7.4748664"
       x2="16.093008"
       y1="-10.977764"
       x1="16.691353"
       spreadMethod="reflect"
       gradientUnits="userSpaceOnUse"
       id="linearGradient3598"
       xlink:href="#linearGradient3578"
       inkscape:collect="always" />
    <linearGradient
       y2="-11.199143"
       x2="11.132382"
       y1="-11.39115"
       x1="16.386753"
       spreadMethod="reflect"
       gradientUnits="userSpaceOnUse"
       id="linearGradient3596"
       xlink:href="#linearGradient3578"
       inkscape:collect="always" />
    <linearGradient
       y2="-2.6882975"
       x2="8.6955833"
       y1="-11.586965"
       x1="12.035328"
       spreadMethod="reflect"
       gradientUnits="userSpaceOnUse"
       id="linearGradient3594"
       xlink:href="#linearGradient3578"
       inkscape:collect="always" />
    <linearGradient
       y2="-5.7778101"
       x2="11.371711"
       y1="-10.150993"
       x1="12.905613"
       spreadMethod="reflect"
       gradientUnits="userSpaceOnUse"
       id="linearGradient3592"
       xlink:href="#linearGradient3578"
       inkscape:collect="always" />
    <linearGradient
       y2="-6.9526954"
       x2="17.74655"
       y1="-5.9083529"
       x1="16.386753"
       spreadMethod="reflect"
       gradientUnits="userSpaceOnUse"
       id="linearGradient3590"
       xlink:href="#linearGradient3578"
       inkscape:collect="always" />
    <linearGradient
       y2="-8.018795"
       x2="17.07476"
       y1="-7.4748664"
       x1="13.514812"
       spreadMethod="reflect"
       gradientUnits="userSpaceOnUse"
       id="linearGradient3588"
       xlink:href="#linearGradient3578"
       inkscape:collect="always" />
    <linearGradient
       y2="-6.5828238"
       x2="18.616835"
       y1="-5.2121248"
       x1="16.908924"
       spreadMethod="reflect"
       gradientUnits="userSpaceOnUse"
       id="linearGradient3586"
       xlink:href="#linearGradient3578"
       inkscape:collect="always" />
    <linearGradient
       spreadMethod="reflect"
       gradientUnits="userSpaceOnUse"
       y2="-7.4748664"
       x2="16.093008"
       y1="-7.4748664"
       x1="13.514812"
       id="linearGradient3584"
       xlink:href="#linearGradient3578"
       inkscape:collect="always" />
    <inkscape:perspective
       sodipodi:type="inkscape:persp3d"
       inkscape:vp_x="0 : 128 : 1"
       inkscape:vp_y="0 : 1000 : 0"
       inkscape:vp_z="256 : 128 : 1"
       inkscape:persp3d-origin="128 : 85.333333 : 1"
       id="perspective2503" />
    <linearGradient
       id="linearGradient3578">
      <stop
         id="stop3580"
         offset="0"
         style="stop-color:#000000;stop-opacity:1;" />
      <stop
         id="stop3582"
         offset="1"
         style="stop-color:#fffcfc;stop-opacity:1;" />
    </linearGradient>
    <linearGradient
       inkscape:collect="always"
       xlink:href="#linearGradient2807"
       id="linearGradient3440"
       gradientUnits="userSpaceOnUse"
       spreadMethod="pad"
       x1="68.198151"
       y1="123.07023"
       x2="66.931297"
       y2="6.0159431" />
    <linearGradient
       inkscape:collect="always"
       xlink:href="#linearGradient2775"
       id="linearGradient3873"
       x1="7.1688948"
       y1="50.911301"
       x2="21.020655"
       y2="40.340218"
       gradientUnits="userSpaceOnUse"
       spreadMethod="reflect"
       gradientTransform="translate(-1.4580802,0.7290401)" />
    <linearGradient
       inkscape:collect="always"
       xlink:href="#linearGradient2785"
       id="linearGradient3883"
       x1="39.368164"
       y1="63.97327"
       x2="63.912514"
       y2="32.989063"
       gradientUnits="userSpaceOnUse" />
    <linearGradient
       spreadMethod="reflect"
       gradientUnits="userSpaceOnUse"
       y2="-65.121056"
       x2="-26.202864"
       y1="-59.841671"
       x1="-46.799274"
       id="linearGradient3858"
       xlink:href="#linearGradient3852"
       inkscape:collect="always" />
    <radialGradient
       gradientUnits="userSpaceOnUse"
       gradientTransform="matrix(0.97965918,-0.00505359,0.00502919,0.97492781,0.99591361,1.7430273)"
       r="46.354855"
       fy="50.09375"
       fx="49.765625"
       cy="50.09375"
       cx="49.765625"
       id="radialGradient3878"
       xlink:href="#linearGradient3884"
       inkscape:collect="always" />
    <filter
       id="filter3878"
       inkscape:collect="always">
      <feGaussianBlur
         id="feGaussianBlur3880"
         stdDeviation="0.92648046"
         inkscape:collect="always" />
    </filter>
    <linearGradient
       spreadMethod="reflect"
       gradientUnits="userSpaceOnUse"
       y2="-13.737336"
       x2="666.49432"
       y1="-47.53727"
       x1="601.56195"
       id="linearGradient3880"
       xlink:href="#linearGradient3852"
       inkscape:collect="always" />
    <linearGradient
       inkscape:collect="always"
       xlink:href="#linearGradient2869"
       id="linearGradient4157"
       x1="-42.953419"
       y1="-3.3105814"
       x2="-18.861147"
       y2="-24.386705"
       gradientUnits="userSpaceOnUse"
       spreadMethod="reflect" />
    <linearGradient
       inkscape:collect="always"
       xlink:href="#linearGradient2799"
       id="linearGradient4163"
       gradientUnits="userSpaceOnUse"
       spreadMethod="reflect"
       x1="-19.295963"
       y1="26.282877"
       x2="-27.375885"
       y2="31.489937" />
    <linearGradient
       inkscape:collect="always"
       xlink:href="#linearGradient2799"
       id="linearGradient4165"
       gradientUnits="userSpaceOnUse"
       spreadMethod="reflect"
       x1="-42.953419"
       y1="-3.3105814"
       x2="-18.861147"
       y2="-24.386705" />
    <linearGradient
       inkscape:collect="always"
       xlink:href="#linearGradient3852"
       id="linearGradient4170"
       gradientUnits="userSpaceOnUse"
       spreadMethod="reflect"
       x1="601.56195"
       y1="-47.53727"
       x2="666.49432"
       y2="-13.737336" />
    <linearGradient
       inkscape:collect="always"
       xlink:href="#linearGradient3852"
       id="linearGradient4172"
       gradientUnits="userSpaceOnUse"
       spreadMethod="reflect"
       x1="601.56195"
       y1="-47.53727"
       x2="666.49432"
       y2="-13.737336" />
    <linearGradient
       inkscape:collect="always"
       xlink:href="#linearGradient2807"
       id="linearGradient4182"
       x1="51.240105"
       y1="35.983509"
       x2="56.062607"
       y2="28.680801"
       gradientUnits="userSpaceOnUse" />
    <linearGradient
       inkscape:collect="always"
       xlink:href="#linearGradient2817"
       id="linearGradient4217"
       x1="51.888893"
       y1="33.528397"
       x2="50.428337"
       y2="35.027378"
       gradientUnits="userSpaceOnUse" />
    <linearGradient
       inkscape:collect="always"
       xlink:href="#linearGradient4219"
       id="linearGradient4225"
       x1="47.516224"
       y1="33.008785"
       x2="49.958298"
       y2="30.469711"
       gradientUnits="userSpaceOnUse" />
    <linearGradient
       inkscape:collect="always"
       xlink:href="#linearGradient2837"
       id="linearGradient3903"
       x1="52.656891"
       y1="17.185444"
       x2="81.736511"
       y2="18.834442"
       gradientUnits="userSpaceOnUse"
       spreadMethod="reflect" />
    <linearGradient
       inkscape:collect="always"
       xlink:href="#linearGradient3917"
       id="linearGradient3923"
       x1="50.147823"
       y1="8.4963207"
       x2="79.298584"
       y2="10.616462"
       gradientUnits="userSpaceOnUse"
       spreadMethod="reflect" />
    <linearGradient
       inkscape:collect="always"
       xlink:href="#linearGradient3917"
       id="linearGradient3929"
       gradientUnits="userSpaceOnUse"
       spreadMethod="reflect"
       x1="50.147823"
       y1="8.4963207"
       x2="79.298584"
       y2="10.616462"
       gradientTransform="matrix(1,0,0,-1,-1.1778563,95.320085)" />
    <linearGradient
       inkscape:collect="always"
       xlink:href="#linearGradient2799"
       id="linearGradient3910"
       gradientUnits="userSpaceOnUse"
       spreadMethod="reflect"
       x1="-19.295963"
       y1="26.282877"
       x2="-27.375885"
       y2="31.489937" />
    <linearGradient
       inkscape:collect="always"
       xlink:href="#linearGradient2799"
       id="linearGradient3912"
       gradientUnits="userSpaceOnUse"
       spreadMethod="reflect"
       x1="-42.953419"
       y1="-3.3105814"
       x2="-18.861147"
       y2="-24.386705" />
    <linearGradient
       inkscape:collect="always"
       xlink:href="#linearGradient2799"
       id="linearGradient3918"
       gradientUnits="userSpaceOnUse"
       spreadMethod="reflect"
       x1="-19.295963"
       y1="26.282877"
       x2="-27.375885"
       y2="31.489937" />
    <linearGradient
       inkscape:collect="always"
       xlink:href="#linearGradient2799"
       id="linearGradient3920"
       gradientUnits="userSpaceOnUse"
       spreadMethod="reflect"
       x1="-42.953419"
       y1="-3.3105814"
       x2="-18.861147"
       y2="-24.386705" />
    <linearGradient
       inkscape:collect="always"
       xlink:href="#linearGradient2799"
       id="linearGradient3922"
       x1="35.705669"
       y1="48.069965"
       x2="38.721352"
       y2="52.774429"
       gradientUnits="userSpaceOnUse"
       spreadMethod="reflect" />
  </defs>
  <path
     transform="matrix(0.98786707,0,0,0.98786707,1.3062295,0.74824545)"
     inkscape:connector-curvature="0"
     id="path3868"
     d="m 49.428135,5.6466063 c -25.583733,0 -46.3319552,20.7482217 -46.3319552,46.3319547 0,25.583733 20.7482222,46.33196 46.3319552,46.33196 25.583734,0 46.300222,-20.748227 46.300222,-46.33196 0,-25.583733 -20.716488,-46.3319547 -46.300222,-46.3319547 z m 0.412545,7.5844767 c 21.467248,0 38.874415,17.407167 38.874415,38.874415 0,21.467248 -17.407167,38.842681 -38.874415,38.842681 -21.467248,0 -38.874415,-17.375433 -38.874415,-38.842681 0,-21.467248 17.407167,-38.874415 38.874415,-38.874415 z"
     style="fill:#000000;fill-opacity:1;stroke:none;filter:url(#filter3878)" />
  <path
     transform="translate(-1.5795869,0)"
     d="m 72.660997,50 a 21.202917,21.202917 0 1 1 -42.405834,0 21.202917,21.202917 0 1 1 42.405834,0 z"
     sodipodi:ry="21.202917"
     sodipodi:rx="21.202917"
     sodipodi:cy="50"
     sodipodi:cx="51.45808"
     id="path3896"
     style="fill:#a1aa75;fill-opacity:1;stroke:none;stroke-width:2.20000000000000018;stroke-miterlimit:4;stroke-dasharray:none"
     sodipodi:type="arc" />
  <g
     style="fill:url(#linearGradient3920);fill-opacity:1;stroke:#373f04;stroke-opacity:1"
     inkscape:label="Gear24"
     transform="matrix(0.11799064,0,0,0.11799064,56.531001,58.837787)"
     id="g3914">
    <path
       inkscape:connector-curvature="0"
       id="path3916"
       transform="matrix(4.0667338,0,0,4.0667338,75.921943,-138.67131)"
       d="m -19,21.90625 -0.40625,0.9375 -0.125,0.6875 0.03125,0.28125 -1.03125,0.125 -0.0625,-0.25 -0.28125,-0.65625 -0.625,-0.8125 -0.65625,0.1875 -0.125,1.03125 0.0625,0.6875 0.09375,0.25 -0.96875,0.375 -0.125,-0.21875 -0.4375,-0.53125 -0.8125,-0.625 -0.59375,0.3125 0.125,1.03125 0.25,0.65625 0.15625,0.21875 -0.84375,0.625 -0.15625,-0.1875 -0.5625,-0.40625 -0.96875,-0.40625 -0.46875,0.5 0.375,0.9375 0.40625,0.59375 0.21875,0.15625 -0.65625,0.8125 -0.1875,-0.125 -0.65625,-0.25 -1.03125,-0.125 -0.34375,0.5625 0.625,0.84375 0.53125,0.4375 0.25,0.09375 -0.40625,0.96875 -0.25,-0.09375 -0.6875,-0.0625 -1.03125,0.15625 -0.15625,0.625 0.8125,0.65625 0.625,0.28125 0.25,0.0625 -0.125,1.03125 -0.25,-0.03125 -0.6875,0.125 -0.96875,0.375 0,0.6875 0.96875,0.40625 0.6875,0.09375 0.25,0 0.125,1.03125 -0.25,0.03125 -0.625,0.3125 -0.8125,0.625 0.15625,0.65625 1.03125,0.125 0.6875,-0.0625 0.25,-0.09375 0.40625,0.96875 -0.25,0.125 -0.53125,0.4375 -0.625,0.8125 0.34375,0.59375 1.03125,-0.125 0.65625,-0.25 0.1875,-0.15625 0.65625,0.8125 -0.21875,0.1875 -0.40625,0.5625 -0.375,0.96875 0.46875,0.46875 0.96875,-0.40625 0.5625,-0.40625 0.15625,-0.1875 0.84375,0.625 -0.15625,0.21875 -0.25,0.65625 -0.125,1.03125 0.59375,0.34375 0.8125,-0.625 0.4375,-0.5625 0.125,-0.21875 0.96875,0.40625 -0.09375,0.21875 -0.0625,0.71875 0.125,1.03125 0.65625,0.15625 0.625,-0.8125 0.28125,-0.625 0.0625,-0.28125 1.03125,0.15625 -0.03125,0.25 0.125,0.6875 0.40625,0.96875 0.65625,0 0.40625,-0.96875 0.125,-0.6875 -0.03125,-0.25 1.03125,-0.15625 0.0625,0.28125 0.28125,0.625 0.625,0.8125 0.65625,-0.15625 0.15625,-1.03125 -0.09375,-0.71875 -0.0625,-0.21875 0.9375,-0.40625 0.125,0.21875 0.4375,0.5625 0.84375,0.625 0.5625,-0.34375 -0.125,-1.03125 -0.25,-0.65625 -0.15625,-0.21875 0.84375,-0.625 0.15625,0.1875 0.5625,0.40625 0.96875,0.40625 0.46875,-0.46875 -0.375,-0.96875 -0.40625,-0.5625 -0.21875,-0.1875 0.65625,-0.8125 0.21875,0.15625 0.625,0.25 1.03125,0.125 0.34375,-0.59375 -0.625,-0.8125 -0.53125,-0.4375 -0.25,-0.125 0.40625,-0.96875 0.25,0.09375 0.6875,0.0625 1.03125,-0.125 0.1875,-0.65625 L -7.625,36.3125 -8.25,36 -8.5,35.96875 l 0.125,-1.03125 0.25,0 0.6875,-0.09375 0.96875,-0.40625 0,-0.6875 L -7.4375,33.375 -8.125,33.25 -8.375,33.28125 -8.5,32.25 -8.25,32.1875 -7.625,31.90625 -6.78125,31.25 -6.96875,30.625 -8,30.46875 l -0.6875,0.0625 -0.25,0.09375 -0.40625,-0.96875 0.25,-0.09375 0.53125,-0.4375 0.625,-0.84375 -0.34375,-0.5625 -1.03125,0.125 -0.625,0.25 -0.21875,0.125 -0.65625,-0.8125 0.21875,-0.15625 0.40625,-0.59375 0.375,-0.9375 -0.46875,-0.5 -0.96875,0.40625 -0.5625,0.40625 -0.15625,0.1875 -0.84375,-0.625 0.15625,-0.21875 0.25,-0.65625 0.125,-1.03125 -0.5625,-0.3125 -0.84375,0.625 -0.4375,0.53125 -0.125,0.21875 -0.9375,-0.375 0.0625,-0.25 0.09375,-0.6875 -0.15625,-1.03125 -0.65625,-0.1875 -0.625,0.8125 -0.28125,0.65625 -0.0625,0.25 -1.03125,-0.125 0.03125,-0.28125 -0.125,-0.6875 -0.40625,-0.9375 -0.65625,0 z m 0.28125,4.125 c 2.065157,0 3.941781,0.762846 5.375,2.03125 l -3.5625,3.53125 c -0.522333,-0.392398 -1.172493,-0.625 -1.875,-0.625 -0.304497,0 -0.596773,0.0437 -0.875,0.125 l -2.5,-4.3125 c 1.045035,-0.489198 2.207038,-0.75 3.4375,-0.75 z m -4.25,1.1875 L -20.5,31.5 c -0.667975,0.44273 -1.168057,1.130611 -1.34375,1.9375 l -4.96875,0 c 0.227307,-2.629994 1.711188,-4.90559 3.84375,-6.21875 z m 10.28125,1.5 c 1.154118,1.276622 1.905512,2.902365 2.0625,4.71875 l -5.09375,0 c -0.09401,-0.424153 -0.285508,-0.813847 -0.53125,-1.15625 l 3.5625,-3.5625 z m -14.15625,5.6875 4.96875,0 c 0.05712,0.584391 0.259197,1.117166 0.59375,1.5625 L -24.8125,39.5 c -1.208596,-1.373345 -1.972519,-3.134079 -2.03125,-5.09375 z m 11.15625,0 5.09375,0 c -0.07906,2.638022 -1.423285,4.979285 -3.4375,6.40625 L -16.625,36.34375 c 0.514439,-0.499646 0.859084,-1.181282 0.9375,-1.9375 z m -4.90625,2.21875 c 0.512541,0.36785 1.13452,0.59375 1.8125,0.59375 0.496191,0 0.958435,-0.137731 1.375,-0.34375 l 2.5625,4.4375 c -1.151274,0.625274 -2.472333,0.96875 -3.875,0.96875 -2.096231,0 -3.996571,-0.791092 -5.4375,-2.09375 l 3.5625,-3.5625 z"
       style="fill:url(#linearGradient3918);fill-opacity:1;stroke:#373f04;stroke-width:0.24589758;stroke-opacity:1" />
  </g>
  <g
     id="g3906"
     transform="matrix(0.11799064,0,0,0.11799064,42.176357,39.77868)"
     inkscape:label="Gear24"
     style="fill:url(#linearGradient3912);fill-opacity:1;stroke:#373f04;stroke-opacity:1">
    <path
       style="fill:url(#linearGradient3910);fill-opacity:1;stroke:#373f04;stroke-width:0.24589758;stroke-opacity:1"
       d="m -19,21.90625 -0.40625,0.9375 -0.125,0.6875 0.03125,0.28125 -1.03125,0.125 -0.0625,-0.25 -0.28125,-0.65625 -0.625,-0.8125 -0.65625,0.1875 -0.125,1.03125 0.0625,0.6875 0.09375,0.25 -0.96875,0.375 -0.125,-0.21875 -0.4375,-0.53125 -0.8125,-0.625 -0.59375,0.3125 0.125,1.03125 0.25,0.65625 0.15625,0.21875 -0.84375,0.625 -0.15625,-0.1875 -0.5625,-0.40625 -0.96875,-0.40625 -0.46875,0.5 0.375,0.9375 0.40625,0.59375 0.21875,0.15625 -0.65625,0.8125 -0.1875,-0.125 -0.65625,-0.25 -1.03125,-0.125 -0.34375,0.5625 0.625,0.84375 0.53125,0.4375 0.25,0.09375 -0.40625,0.96875 -0.25,-0.09375 -0.6875,-0.0625 -1.03125,0.15625 -0.15625,0.625 0.8125,0.65625 0.625,0.28125 0.25,0.0625 -0.125,1.03125 -0.25,-0.03125 -0.6875,0.125 -0.96875,0.375 0,0.6875 0.96875,0.40625 0.6875,0.09375 0.25,0 0.125,1.03125 -0.25,0.03125 -0.625,0.3125 -0.8125,0.625 0.15625,0.65625 1.03125,0.125 0.6875,-0.0625 0.25,-0.09375 0.40625,0.96875 -0.25,0.125 -0.53125,0.4375 -0.625,0.8125 0.34375,0.59375 1.03125,-0.125 0.65625,-0.25 0.1875,-0.15625 0.65625,0.8125 -0.21875,0.1875 -0.40625,0.5625 -0.375,0.96875 0.46875,0.46875 0.96875,-0.40625 0.5625,-0.40625 0.15625,-0.1875 0.84375,0.625 -0.15625,0.21875 -0.25,0.65625 -0.125,1.03125 0.59375,0.34375 0.8125,-0.625 0.4375,-0.5625 0.125,-0.21875 0.96875,0.40625 -0.09375,0.21875 -0.0625,0.71875 0.125,1.03125 0.65625,0.15625 0.625,-0.8125 0.28125,-0.625 0.0625,-0.28125 1.03125,0.15625 -0.03125,0.25 0.125,0.6875 0.40625,0.96875 0.65625,0 0.40625,-0.96875 0.125,-0.6875 -0.03125,-0.25 1.03125,-0.15625 0.0625,0.28125 0.28125,0.625 0.625,0.8125 0.65625,-0.15625 0.15625,-1.03125 -0.09375,-0.71875 -0.0625,-0.21875 0.9375,-0.40625 0.125,0.21875 0.4375,0.5625 0.84375,0.625 0.5625,-0.34375 -0.125,-1.03125 -0.25,-0.65625 -0.15625,-0.21875 0.84375,-0.625 0.15625,0.1875 0.5625,0.40625 0.96875,0.40625 0.46875,-0.46875 -0.375,-0.96875 -0.40625,-0.5625 -0.21875,-0.1875 0.65625,-0.8125 0.21875,0.15625 0.625,0.25 1.03125,0.125 0.34375,-0.59375 -0.625,-0.8125 -0.53125,-0.4375 -0.25,-0.125 0.40625,-0.96875 0.25,0.09375 0.6875,0.0625 1.03125,-0.125 0.1875,-0.65625 L -7.625,36.3125 -8.25,36 -8.5,35.96875 l 0.125,-1.03125 0.25,0 0.6875,-0.09375 0.96875,-0.40625 0,-0.6875 L -7.4375,33.375 -8.125,33.25 -8.375,33.28125 -8.5,32.25 -8.25,32.1875 -7.625,31.90625 -6.78125,31.25 -6.96875,30.625 -8,30.46875 l -0.6875,0.0625 -0.25,0.09375 -0.40625,-0.96875 0.25,-0.09375 0.53125,-0.4375 0.625,-0.84375 -0.34375,-0.5625 -1.03125,0.125 -0.625,0.25 -0.21875,0.125 -0.65625,-0.8125 0.21875,-0.15625 0.40625,-0.59375 0.375,-0.9375 -0.46875,-0.5 -0.96875,0.40625 -0.5625,0.40625 -0.15625,0.1875 -0.84375,-0.625 0.15625,-0.21875 0.25,-0.65625 0.125,-1.03125 -0.5625,-0.3125 -0.84375,0.625 -0.4375,0.53125 -0.125,0.21875 -0.9375,-0.375 0.0625,-0.25 0.09375,-0.6875 -0.15625,-1.03125 -0.65625,-0.1875 -0.625,0.8125 -0.28125,0.65625 -0.0625,0.25 -1.03125,-0.125 0.03125,-0.28125 -0.125,-0.6875 -0.40625,-0.9375 -0.65625,0 z m 0.28125,4.125 c 2.065157,0 3.941781,0.762846 5.375,2.03125 l -3.5625,3.53125 c -0.522333,-0.392398 -1.172493,-0.625 -1.875,-0.625 -0.304497,0 -0.596773,0.0437 -0.875,0.125 l -2.5,-4.3125 c 1.045035,-0.489198 2.207038,-0.75 3.4375,-0.75 z m -4.25,1.1875 L -20.5,31.5 c -0.667975,0.44273 -1.168057,1.130611 -1.34375,1.9375 l -4.96875,0 c 0.227307,-2.629994 1.711188,-4.90559 3.84375,-6.21875 z m 10.28125,1.5 c 1.154118,1.276622 1.905512,2.902365 2.0625,4.71875 l -5.09375,0 c -0.09401,-0.424153 -0.285508,-0.813847 -0.53125,-1.15625 l 3.5625,-3.5625 z m -14.15625,5.6875 4.96875,0 c 0.05712,0.584391 0.259197,1.117166 0.59375,1.5625 L -24.8125,39.5 c -1.208596,-1.373345 -1.972519,-3.134079 -2.03125,-5.09375 z m 11.15625,0 5.09375,0 c -0.07906,2.638022 -1.423285,4.979285 -3.4375,6.40625 L -16.625,36.34375 c 0.514439,-0.499646 0.859084,-1.181282 0.9375,-1.9375 z m -4.90625,2.21875 c 0.512541,0.36785 1.13452,0.59375 1.8125,0.59375 0.496191,0 0.958435,-0.137731 1.375,-0.34375 l 2.5625,4.4375 c -1.151274,0.625274 -2.472333,0.96875 -3.875,0.96875 -2.096231,0 -3.996571,-0.791092 -5.4375,-2.09375 l 3.5625,-3.5625 z"
       transform="matrix(4.0667338,0,0,4.0667338,75.921943,-138.67131)"
       id="path3908"
       inkscape:connector-curvature="0" />
  </g>
  <path
     sodipodi:type="arc"
     style="fill:#8d9314;fill-opacity:1;stroke:#636363;stroke-width:0.20000000000000001;stroke-linecap:round;stroke-miterlimit:4;stroke-opacity:1;stroke-dasharray:none"
     id="path4227"
     sodipodi:cx="30.565371"
     sodipodi:cy="51.884571"
     sodipodi:rx="4.5347466"
     sodipodi:ry="4.5347466"
     d="m 35.100117,51.884571 a 4.5347466,4.5347466 0 1 1 -9.069493,0 4.5347466,4.5347466 0 1 1 9.069493,0 z"
     transform="translate(-0.82449941,0.47114252)" />
  <rect
     style="fill:url(#linearGradient3922);fill-opacity:1;stroke:none"
     id="rect3146"
     width="15.44029"
     height="5.4282269"
     x="27.864897"
     y="49.577805"
     ry="2.0506635" />
  <path
     style="fill:none;stroke:#3e3e3e;stroke-width:0.41167872999999999;stroke-linecap:butt;stroke-linejoin:miter;stroke-miterlimit:4;stroke-opacity:1"
     d="m 42.075804,39.870438 c 0.168661,0.04519 0.02229,0.249649 -0.07511,0.280326 -0.263964,0.08313 -0.474601,-0.194838 -0.485539,-0.430552 -0.01957,-0.421639 0.394475,-0.711403 0.785993,-0.690752 0.574567,0.0303 0.952881,0.595974 0.895965,1.141432 -0.07586,0.727008 -0.798025,1.196211 -1.496872,1.101177 -0.879428,-0.11959 -1.440472,-1.000309 -1.30639,-1.852311 0.16239,-1.031889 1.20272,-1.685266 2.20775,-1.511603 1.184393,0.204655 1.930394,1.405211 1.716816,2.56319 -0.246583,1.336933 -1.607753,2.175744 -2.918629,1.922029 -1.489502,-0.288287 -2.421251,-1.810332 -2.127242,-3.27407 0.329833,-1.642091 2.012939,-2.666869 3.629509,-2.332454 1.794699,0.371264 2.912575,2.215566 2.537667,3.984949 -0.41261,1.947319 -2.41821,3.158345 -4.340388,2.74288 -2.099952,-0.45389 -3.404167,-2.620866 -2.948093,-4.695828 0.495118,-2.252593 2.823532,-3.65003 5.051267,-3.153305 2.405242,0.536303 3.895927,3.026206 3.358519,5.406706 -0.577456,2.557896 -3.228889,4.141851 -5.762146,3.563731 -2.710557,-0.61858 -4.387797,-3.431576 -3.768945,-6.117586 0.659682,-2.863219 3.634269,-4.633762 6.473026,-3.974157 3.015888,0.700765 4.879745,3.836966 4.17937,6.828465 -0.74183,3.16856 -4.039667,5.125743 -7.183905,4.384584 -3.321233,-0.782882 -5.37175,-4.242371 -4.589796,-7.539345 0.82392,-3.473909 4.445077,-5.61777 7.894784,-4.795008 3.626589,0.864948 5.863798,4.647786 5.000222,8.250223 -0.905968,3.779269 -4.850497,6.109835 -8.605663,5.205434 -3.931952,-0.946978 -6.355879,-5.05321 -5.410647,-8.961102 0.987981,-4.084636 5.255924,-6.601929 9.316542,-5.61586 4.23732,1.028979 6.847984,5.458641 5.821072,9.671981 -0.407259,1.670955 -1.350609,3.190456 -2.662207,4.302148"
     id="path4167"
     inkscape:connector-curvature="0" />
  <g
     style="fill:url(#linearGradient4165);fill-opacity:1.0;stroke:#373f04;stroke-opacity:1"
     inkscape:label="Gear24"
     transform="matrix(0.16130655,0,0,0.16130655,44.227523,63.902294)"
     id="g4159">
    <path
       inkscape:connector-curvature="0"
       id="path4161"
       transform="matrix(4.0667338,0,0,4.0667338,75.921943,-138.67131)"
       d="m -19,21.90625 -0.40625,0.9375 -0.125,0.6875 0.03125,0.28125 -1.03125,0.125 -0.0625,-0.25 -0.28125,-0.65625 -0.625,-0.8125 -0.65625,0.1875 -0.125,1.03125 0.0625,0.6875 0.09375,0.25 -0.96875,0.375 -0.125,-0.21875 -0.4375,-0.53125 -0.8125,-0.625 -0.59375,0.3125 0.125,1.03125 0.25,0.65625 0.15625,0.21875 -0.84375,0.625 -0.15625,-0.1875 -0.5625,-0.40625 -0.96875,-0.40625 -0.46875,0.5 0.375,0.9375 0.40625,0.59375 0.21875,0.15625 -0.65625,0.8125 -0.1875,-0.125 -0.65625,-0.25 -1.03125,-0.125 -0.34375,0.5625 0.625,0.84375 0.53125,0.4375 0.25,0.09375 -0.40625,0.96875 -0.25,-0.09375 -0.6875,-0.0625 -1.03125,0.15625 -0.15625,0.625 0.8125,0.65625 0.625,0.28125 0.25,0.0625 -0.125,1.03125 -0.25,-0.03125 -0.6875,0.125 -0.96875,0.375 0,0.6875 0.96875,0.40625 0.6875,0.09375 0.25,0 0.125,1.03125 -0.25,0.03125 -0.625,0.3125 -0.8125,0.625 0.15625,0.65625 1.03125,0.125 0.6875,-0.0625 0.25,-0.09375 0.40625,0.96875 -0.25,0.125 -0.53125,0.4375 -0.625,0.8125 0.34375,0.59375 1.03125,-0.125 0.65625,-0.25 0.1875,-0.15625 0.65625,0.8125 -0.21875,0.1875 -0.40625,0.5625 -0.375,0.96875 0.46875,0.46875 0.96875,-0.40625 0.5625,-0.40625 0.15625,-0.1875 0.84375,0.625 -0.15625,0.21875 -0.25,0.65625 -0.125,1.03125 0.59375,0.34375 0.8125,-0.625 0.4375,-0.5625 0.125,-0.21875 0.96875,0.40625 -0.09375,0.21875 -0.0625,0.71875 0.125,1.03125 0.65625,0.15625 0.625,-0.8125 0.28125,-0.625 0.0625,-0.28125 1.03125,0.15625 -0.03125,0.25 0.125,0.6875 0.40625,0.96875 0.65625,0 0.40625,-0.96875 0.125,-0.6875 -0.03125,-0.25 1.03125,-0.15625 0.0625,0.28125 0.28125,0.625 0.625,0.8125 0.65625,-0.15625 0.15625,-1.03125 -0.09375,-0.71875 -0.0625,-0.21875 0.9375,-0.40625 0.125,0.21875 0.4375,0.5625 0.84375,0.625 0.5625,-0.34375 -0.125,-1.03125 -0.25,-0.65625 -0.15625,-0.21875 0.84375,-0.625 0.15625,0.1875 0.5625,0.40625 0.96875,0.40625 0.46875,-0.46875 -0.375,-0.96875 -0.40625,-0.5625 -0.21875,-0.1875 0.65625,-0.8125 0.21875,0.15625 0.625,0.25 1.03125,0.125 0.34375,-0.59375 -0.625,-0.8125 -0.53125,-0.4375 -0.25,-0.125 0.40625,-0.96875 0.25,0.09375 0.6875,0.0625 1.03125,-0.125 0.1875,-0.65625 L -7.625,36.3125 -8.25,36 -8.5,35.96875 l 0.125,-1.03125 0.25,0 0.6875,-0.09375 0.96875,-0.40625 0,-0.6875 L -7.4375,33.375 -8.125,33.25 -8.375,33.28125 -8.5,32.25 -8.25,32.1875 -7.625,31.90625 -6.78125,31.25 -6.96875,30.625 -8,30.46875 l -0.6875,0.0625 -0.25,0.09375 -0.40625,-0.96875 0.25,-0.09375 0.53125,-0.4375 0.625,-0.84375 -0.34375,-0.5625 -1.03125,0.125 -0.625,0.25 -0.21875,0.125 -0.65625,-0.8125 0.21875,-0.15625 0.40625,-0.59375 0.375,-0.9375 -0.46875,-0.5 -0.96875,0.40625 -0.5625,0.40625 -0.15625,0.1875 -0.84375,-0.625 0.15625,-0.21875 0.25,-0.65625 0.125,-1.03125 -0.5625,-0.3125 -0.84375,0.625 -0.4375,0.53125 -0.125,0.21875 -0.9375,-0.375 0.0625,-0.25 0.09375,-0.6875 -0.15625,-1.03125 -0.65625,-0.1875 -0.625,0.8125 -0.28125,0.65625 -0.0625,0.25 -1.03125,-0.125 0.03125,-0.28125 -0.125,-0.6875 -0.40625,-0.9375 -0.65625,0 z m 0.28125,4.125 c 2.065157,0 3.941781,0.762846 5.375,2.03125 l -3.5625,3.53125 c -0.522333,-0.392398 -1.172493,-0.625 -1.875,-0.625 -0.304497,0 -0.596773,0.0437 -0.875,0.125 l -2.5,-4.3125 c 1.045035,-0.489198 2.207038,-0.75 3.4375,-0.75 z m -4.25,1.1875 L -20.5,31.5 c -0.667975,0.44273 -1.168057,1.130611 -1.34375,1.9375 l -4.96875,0 c 0.227307,-2.629994 1.711188,-4.90559 3.84375,-6.21875 z m 10.28125,1.5 c 1.154118,1.276622 1.905512,2.902365 2.0625,4.71875 l -5.09375,0 c -0.09401,-0.424153 -0.285508,-0.813847 -0.53125,-1.15625 l 3.5625,-3.5625 z m -14.15625,5.6875 4.96875,0 c 0.05712,0.584391 0.259197,1.117166 0.59375,1.5625 L -24.8125,39.5 c -1.208596,-1.373345 -1.972519,-3.134079 -2.03125,-5.09375 z m 11.15625,0 5.09375,0 c -0.07906,2.638022 -1.423285,4.979285 -3.4375,6.40625 L -16.625,36.34375 c 0.514439,-0.499646 0.859084,-1.181282 0.9375,-1.9375 z m -4.90625,2.21875 c 0.512541,0.36785 1.13452,0.59375 1.8125,0.59375 0.496191,0 0.958435,-0.137731 1.375,-0.34375 l 2.5625,4.4375 c -1.151274,0.625274 -2.472333,0.96875 -3.875,0.96875 -2.096231,0 -3.996571,-0.791092 -5.4375,-2.09375 l 3.5625,-3.5625 z"
       style="fill:url(#linearGradient4163);fill-opacity:1.0;stroke:#373f04;stroke-width:0.24589758000000000;stroke-opacity:1" />
  </g>
  <g
     id="g4007"
     transform="matrix(0.24589758,0,0,0.24589758,67.785631,47.997644)"
     inkscape:label="Gear24"
     style="fill:url(#linearGradient4157);fill-opacity:1;stroke:#586409;stroke-opacity:1">
    <path
       style="fill:url(#linearGradient4157);fill-opacity:1;stroke:#586409;stroke-width:0.24589758000000000;stroke-opacity:1"
       d="m -19,21.90625 -0.40625,0.9375 -0.125,0.6875 0.03125,0.28125 -1.03125,0.125 -0.0625,-0.25 -0.28125,-0.65625 -0.625,-0.8125 -0.65625,0.1875 -0.125,1.03125 0.0625,0.6875 0.09375,0.25 -0.96875,0.375 -0.125,-0.21875 -0.4375,-0.53125 -0.8125,-0.625 -0.59375,0.3125 0.125,1.03125 0.25,0.65625 0.15625,0.21875 -0.84375,0.625 -0.15625,-0.1875 -0.5625,-0.40625 -0.96875,-0.40625 -0.46875,0.5 0.375,0.9375 0.40625,0.59375 0.21875,0.15625 -0.65625,0.8125 -0.1875,-0.125 -0.65625,-0.25 -1.03125,-0.125 -0.34375,0.5625 0.625,0.84375 0.53125,0.4375 0.25,0.09375 -0.40625,0.96875 -0.25,-0.09375 -0.6875,-0.0625 -1.03125,0.15625 -0.15625,0.625 0.8125,0.65625 0.625,0.28125 0.25,0.0625 -0.125,1.03125 -0.25,-0.03125 -0.6875,0.125 -0.96875,0.375 0,0.6875 0.96875,0.40625 0.6875,0.09375 0.25,0 0.125,1.03125 -0.25,0.03125 -0.625,0.3125 -0.8125,0.625 0.15625,0.65625 1.03125,0.125 0.6875,-0.0625 0.25,-0.09375 0.40625,0.96875 -0.25,0.125 -0.53125,0.4375 -0.625,0.8125 0.34375,0.59375 1.03125,-0.125 0.65625,-0.25 0.1875,-0.15625 0.65625,0.8125 -0.21875,0.1875 -0.40625,0.5625 -0.375,0.96875 0.46875,0.46875 0.96875,-0.40625 0.5625,-0.40625 0.15625,-0.1875 0.84375,0.625 -0.15625,0.21875 -0.25,0.65625 -0.125,1.03125 0.59375,0.34375 0.8125,-0.625 0.4375,-0.5625 0.125,-0.21875 0.96875,0.40625 -0.09375,0.21875 -0.0625,0.71875 0.125,1.03125 0.65625,0.15625 0.625,-0.8125 0.28125,-0.625 0.0625,-0.28125 1.03125,0.15625 -0.03125,0.25 0.125,0.6875 0.40625,0.96875 0.65625,0 0.40625,-0.96875 0.125,-0.6875 -0.03125,-0.25 1.03125,-0.15625 0.0625,0.28125 0.28125,0.625 0.625,0.8125 0.65625,-0.15625 0.15625,-1.03125 -0.09375,-0.71875 -0.0625,-0.21875 0.9375,-0.40625 0.125,0.21875 0.4375,0.5625 0.84375,0.625 0.5625,-0.34375 -0.125,-1.03125 -0.25,-0.65625 -0.15625,-0.21875 0.84375,-0.625 0.15625,0.1875 0.5625,0.40625 0.96875,0.40625 0.46875,-0.46875 -0.375,-0.96875 -0.40625,-0.5625 -0.21875,-0.1875 0.65625,-0.8125 0.21875,0.15625 0.625,0.25 1.03125,0.125 0.34375,-0.59375 -0.625,-0.8125 -0.53125,-0.4375 -0.25,-0.125 0.40625,-0.96875 0.25,0.09375 0.6875,0.0625 1.03125,-0.125 0.1875,-0.65625 L -7.625,36.3125 -8.25,36 -8.5,35.96875 l 0.125,-1.03125 0.25,0 0.6875,-0.09375 0.96875,-0.40625 0,-0.6875 L -7.4375,33.375 -8.125,33.25 -8.375,33.28125 -8.5,32.25 -8.25,32.1875 -7.625,31.90625 -6.78125,31.25 -6.96875,30.625 -8,30.46875 l -0.6875,0.0625 -0.25,0.09375 -0.40625,-0.96875 0.25,-0.09375 0.53125,-0.4375 0.625,-0.84375 -0.34375,-0.5625 -1.03125,0.125 -0.625,0.25 -0.21875,0.125 -0.65625,-0.8125 0.21875,-0.15625 0.40625,-0.59375 0.375,-0.9375 -0.46875,-0.5 -0.96875,0.40625 -0.5625,0.40625 -0.15625,0.1875 -0.84375,-0.625 0.15625,-0.21875 0.25,-0.65625 0.125,-1.03125 -0.5625,-0.3125 -0.84375,0.625 -0.4375,0.53125 -0.125,0.21875 -0.9375,-0.375 0.0625,-0.25 0.09375,-0.6875 -0.15625,-1.03125 -0.65625,-0.1875 -0.625,0.8125 -0.28125,0.65625 -0.0625,0.25 -1.03125,-0.125 0.03125,-0.28125 -0.125,-0.6875 -0.40625,-0.9375 -0.65625,0 z m 0.28125,4.125 c 2.065157,0 3.941781,0.762846 5.375,2.03125 l -3.5625,3.53125 c -0.522333,-0.392398 -1.172493,-0.625 -1.875,-0.625 -0.304497,0 -0.596773,0.0437 -0.875,0.125 l -2.5,-4.3125 c 1.045035,-0.489198 2.207038,-0.75 3.4375,-0.75 z m -4.25,1.1875 L -20.5,31.5 c -0.667975,0.44273 -1.168057,1.130611 -1.34375,1.9375 l -4.96875,0 c 0.227307,-2.629994 1.711188,-4.90559 3.84375,-6.21875 z m 10.28125,1.5 c 1.154118,1.276622 1.905512,2.902365 2.0625,4.71875 l -5.09375,0 c -0.09401,-0.424153 -0.285508,-0.813847 -0.53125,-1.15625 l 3.5625,-3.5625 z m -14.15625,5.6875 4.96875,0 c 0.05712,0.584391 0.259197,1.117166 0.59375,1.5625 L -24.8125,39.5 c -1.208596,-1.373345 -1.972519,-3.134079 -2.03125,-5.09375 z m 11.15625,0 5.09375,0 c -0.07906,2.638022 -1.423285,4.979285 -3.4375,6.40625 L -16.625,36.34375 c 0.514439,-0.499646 0.859084,-1.181282 0.9375,-1.9375 z m -4.90625,2.21875 c 0.512541,0.36785 1.13452,0.59375 1.8125,0.59375 0.496191,0 0.958435,-0.137731 1.375,-0.34375 l 2.5625,4.4375 c -1.151274,0.625274 -2.472333,0.96875 -3.875,0.96875 -2.096231,0 -3.996571,-0.791092 -5.4375,-2.09375 l 3.5625,-3.5625 z"
       transform="matrix(4.0667338,0,0,4.0667338,75.921943,-138.67131)"
       id="path4009"
       inkscape:connector-curvature="0" />
  </g>
  <g
     style="fill:url(#linearGradient4172);fill-opacity:1;stroke:#3e3e3e;stroke-opacity:1"
     inkscape:label="Gear55"
     transform="matrix(0.12893719,0,0,0.12893719,-21.630385,51.886684)"
     id="g3860">
    <path
       inkscape:connector-curvature="0"
       id="path3862"
       d="m 552.56703,-122.5597 -1.4542,4.12022 -0.72709,3.63549 -3.6355,0.48473 -1.45419,-3.87785 -1.93893,-3.39313 -3.15076,0.24237 -0.96946,4.12022 -0.48474,4.12022 -3.39312,0.7271 -1.93893,-3.63549 -2.18129,-3.39312 -3.15076,0.96946 -0.48474,3.87786 0,3.87786 -3.15075,1.21183 -2.42366,-3.15076 -2.9084,-3.15076 -2.66602,1.21183 0,4.12022 0.48473,4.12022 -3.39313,1.21184 -2.66602,-2.9084 -3.15076,-2.66602 -2.42366,1.45419 0.48473,3.87786 0.7271,4.12022 -2.9084,1.938927 -3.15075,-2.666027 -3.39313,-2.42366 -2.66603,1.69657 0.96947,3.877847 1.45419,3.877863 -2.90839,2.181295 -3.15076,-2.181295 -3.87785,-2.181293 -1.93893,2.181293 1.45419,3.877857 1.4542,3.635491 -2.42366,2.181295 -3.63549,-1.696563 -3.63549,-1.454196 -2.1813,1.938928 1.93893,3.877857 2.1813,3.393125 -2.1813,2.666027 -3.63549,-1.454196 -4.36259,-0.969465 -1.69656,2.423661 2.42366,3.393125 2.42366,3.150759 -1.93893,2.908393 -3.63549,-0.727098 -4.36259,-0.727099 -1.4542,2.423661 2.66603,3.393125 2.90839,2.666027 -1.45419,3.393125 -4.12023,-0.727098 -4.12022,0 -1.21183,2.666026 3.15076,2.908393 2.90839,2.423661 -0.96946,3.150759 -4.12023,0 -4.12022,0.484732 -0.7271,2.908393 3.15076,2.42366 3.39313,1.938929 -0.7271,3.393125 -3.87786,0.484732 -4.12022,0.727098 -0.7271,3.150759 3.87786,1.938929 3.39312,1.696562 -0.48473,3.635491 -3.63549,0.727098 -3.87786,1.211831 -0.24236,3.150759 3.63549,1.696562 3.63549,0.969464 0,3.877857 -3.63549,1.211831 -3.63549,1.4541958 0.24236,3.1507594 3.87786,1.454197 3.63549,0.4847317 0.48473,3.63549095 -3.39312,1.69656255 -3.87786,1.9389285 0.7271,3.1507589 4.12022,0.7270983 3.87786,0.4847321 0.7271,3.3931248 -3.39313,1.938929 -3.15076,2.423661 0.7271,3.150758 4.12022,0.242366 4.12023,0 0.96946,3.150759 -2.90839,2.423661 -3.15076,3.150759 1.21183,2.42366 4.12022,0 4.12023,-0.484732 1.45419,3.150759 -2.90839,2.666027 -2.66603,3.393125 1.4542,2.42366 4.36259,-0.727098 3.63549,-0.727098 1.93893,2.908393 -2.42366,3.150759 -2.42366,3.393125 1.69656,2.42366 4.36259,-0.969464 3.63549,-1.454196 2.1813,2.666027 -2.1813,3.393124 -1.93893,3.877858 2.1813,1.938928 3.63549,-1.454196 3.63549,-1.696563 2.42366,2.181295 -1.4542,3.877857 -1.45419,3.635491 1.93893,2.181295 3.87785,-2.181295 3.15076,-1.938929 2.90839,1.938929 -1.45419,3.877857 -0.96947,3.877857 2.66603,1.938929 3.39313,-2.423661 3.15075,-2.666027 2.9084,1.696563 -0.7271,4.120223 -0.48473,3.877857 2.42366,1.454196 3.15076,-2.666026 2.66602,-2.908393 3.39313,1.454196 -0.48473,4.120223 0,3.877858 2.66602,1.21183 2.9084,-3.150759 2.42366,-3.150759 3.15075,1.21183 0,3.877858 0.48474,4.120223 3.15076,0.727098 2.18129,-3.393125 1.93893,-3.635491 3.39312,0.727098 0.48474,4.120223 0.96946,4.120223 3.15076,0.242367 1.93893,-3.393125 1.45419,-3.877858 3.6355,0.484733 0.72709,3.877857 1.4542,3.877857 3.15076,0 1.4542,-3.877857 1.21183,-3.635491 3.63549,-0.242366 1.21183,3.877857 1.69656,3.635491 3.15076,-0.242366 1.21183,-3.877857 0.48473,-4.120224 3.63549,-0.484732 1.93893,3.635491 1.93893,3.393125 3.15076,-0.484732 0.7271,-4.120223 0.24236,-3.877857 3.15076,-0.969464 2.42366,3.393125 2.42366,3.150758 2.9084,-0.727098 0.24236,-4.362589 -0.24236,-3.877857 3.15075,-1.454197 2.66603,3.393125 3.15076,2.666027 2.42366,-0.969464 -0.24237,-4.362589 -0.48473,-3.877857 3.15076,-1.696563 2.66603,2.908393 3.39312,2.423661 2.42366,-1.696563 -0.72709,-3.877857 -0.96947,-3.877857 2.90839,-1.938929 3.15076,2.423661 3.63549,1.938929 2.42366,-1.696563 -1.21183,-4.120223 -1.69656,-3.393125 2.90839,-2.423661 3.15076,2.181295 3.87786,1.696562 1.93893,-2.181294 -1.21183,-3.877857 -2.1813,-3.393125 2.42366,-2.666027 3.6355,1.696562 3.87785,1.211831 1.93893,-2.423661 -2.18129,-3.393125 -2.1813,-3.393125 1.93893,-2.666027 3.87786,1.211831 4.12022,0.727098 1.69656,-2.423661 -2.66602,-3.635491 -2.42366,-2.666026 1.45419,-3.150759 4.12023,0.727098 4.12022,0.484732 1.21183,-2.666027 -2.90839,-3.150759 -2.9084,-2.42366 1.4542,-3.393125 3.87786,0.242366 4.12022,0 0.96946,-2.908393 -2.90839,-2.666027 -3.39312,-2.423661 0.96946,-3.150758 3.87786,-0.242366 4.36259,-0.484732 0.7271,-3.1507593 -3.6355,-2.1812946 -3.39312,-1.9389286 0.48473,-3.1507589 3.87786,-0.7270982 3.87786,-0.96946435 0.48473,-3.15075885 -3.63549,-1.696562 -3.63549,-1.696563 0,-3.6354914 4.12022,-0.7270978 3.63549,-1.696563 0,-2.908392 -3.63549,-1.454197 -4.12022,-0.969464 0,-3.635491 3.63549,-1.454197 3.63549,-1.938928 -0.48473,-2.908393 -3.87786,-1.21183 -3.87786,-0.484732 -0.48473,-3.393125 3.39312,-1.938929 3.6355,-2.181295 -0.7271,-3.150758 -4.36259,-0.484733 -3.87786,-0.242366 -0.96946,-3.150759 3.39312,-2.42366 2.90839,-2.666027 -0.96946,-2.908393 -4.12022,0 -3.87786,0.242366 -1.4542,-3.150759 2.9084,-2.666026 2.90839,-3.150759 -1.21183,-2.423661 -4.12022,0.242366 -4.12023,0.727098 -1.45419,-3.150759 2.42366,-2.666026 2.66602,-3.635491 -1.69656,-2.423661 -4.12022,0.727098 -3.87786,1.21183 -1.93893,-2.666026 2.1813,-3.393125 2.18129,-3.393125 -1.93893,-2.423661 -3.87785,1.21183 -3.6355,1.696563 -2.42366,-2.666027 2.1813,-3.393125 1.21183,-3.877857 -1.93893,-1.938928 -3.87786,1.696562 -3.15076,1.938929 -2.90839,-2.423661 1.69656,-3.393125 1.21183,-4.120223 -2.42366,-1.696567 -3.63549,1.938927 -3.15076,2.42366 -2.90839,-1.93893 0.96947,-3.635487 0.72709,-4.12022 -2.42366,-1.69656 -3.39312,2.42366 -2.66603,2.90839 -3.15076,-1.69656 0.48473,-3.87786 0.24237,-3.87785 -2.42366,-1.4542 -3.15076,2.90839 -2.66603,3.15076 -3.15075,-1.4542 0.24236,-3.87785 -0.24236,-4.12023 -2.9084,-0.96946 -2.42366,3.15076 -2.42366,3.39312 -3.15076,-0.72709 -0.24236,-4.12023 -0.7271,-4.12022 -3.15076,-0.48473 -1.93893,3.39312 -1.93893,3.63549 -3.63549,-0.48473 -0.48473,-4.12022 -1.21183,-3.87786 -3.15076,-0.24237 -1.69656,3.87786 -1.21183,3.63549 -3.63549,-0.24236 -1.21183,-3.63549 -1.4542,-3.87786 -3.15076,0 z m 4.60496,21.81294 c 19.52492,0 37.4681,6.449455 52.1087,17.207995 -8.81353,14.463709 -18.98277,27.54141 -30.29576,39.505669 -6.23488,-4.636676 -13.68824,-7.513348 -22.05531,-7.513348 -8.24505,0 -15.62631,2.756513 -21.81295,7.270982 -11.66534,-11.877356 -21.86045,-24.660464 -29.56866,-39.505669 14.5067,-10.643011 32.22054,-16.965629 51.62398,-16.965629 z m -62.77282,26.660272 c 14.03371,10.477124 25.31754,22.319503 34.65835,35.14308 -4.76431,5.361983 -8.15097,11.9448 -9.20991,19.389285 l -49.92741,0 c 1.65284,-21.112923 10.60498,-40.220094 24.47897,-54.532365 z m 126.03036,0 c 13.92181,14.29745 22.83409,33.445323 24.47897,54.532365 -17.86306,4.298481 -34.46798,3.993061 -50.65451,2.423661 -0.5985,-7.865876 -3.77379,-14.842405 -8.48281,-20.601116 10.70329,-14.96275 21.93377,-27.860294 34.65835,-36.35491 z m -12.1183,65.9235708 c 11.91988,0.0142 24.173,1.118978 36.59727,3.1507584 -1.86106,20.9165568 -11.07223,39.6446208 -24.9637,53.8052678 -14.36576,-9.345008 -25.59593,-22.766403 -35.87018,-37.566741 4.85418,-5.1828566 8.40667,-11.61273155 9.69464,-18.9045532 4.82344,-0.346921 9.63033,-0.49058 14.54197,-0.484732 z m -138.39103,3.1507584 50.89687,0 c 1.68669,6.6118941 5.01742,12.5307682 9.69465,17.2079908 C 520.17461,26.468999 508.03325,38.495715 494.64154,49.035475 480.74582,34.872059 471.73879,15.979488 469.9202,-5.0121588 z M 536.81324,17.28552 c 5.83206,3.747142 12.66934,6.059151 20.11638,6.059151 7.1371,0 13.71261,-2.109763 19.38928,-5.574419 12.25751,12.644443 23.68871,25.760287 32.47706,40.717499 -14.5024,10.522054 -32.34203,16.723259 -51.62397,16.723259 -19.16047,0 -36.98037,-6.085079 -51.38161,-16.480893 7.6831,-15.835035 18.60336,-29.25294 31.02286,-41.444597 z"
       style="fill:url(#linearGradient4170);fill-opacity:1;stroke:#3e3e3e;stroke-width:1.00000011999999994;stroke-opacity:1" />
  </g>
  <path
     sodipodi:type="arc"
     style="fill:none;fill-opacity:1;stroke:url(#linearGradient3883);stroke-width:2.20000000000000018;stroke-miterlimit:4;stroke-dasharray:none"
     id="path3875"
     sodipodi:cx="51.45808"
     sodipodi:cy="50"
     sodipodi:rx="21.202917"
     sodipodi:ry="21.202917"
     d="m 72.660997,50 a 21.202917,21.202917 0 1 1 -42.405834,0 21.202917,21.202917 0 1 1 42.405834,0 z"
     transform="translate(-1.5795869,0)" />
  <path
     style="fill:url(#linearGradient3873);fill-opacity:1;stroke:none"
     d="M 50.0625 8.875 C 27.514788 8.875 9.25 27.139788 9.25 49.6875 C 9.25 72.235212 27.514788 90.53125 50.0625 90.53125 C 72.610212 90.53125 90.875 72.235212 90.875 49.6875 C 90.875 27.139788 72.610212 8.875 50.0625 8.875 z M 48.78125 28.8125 C 49.142637 28.794181 49.509061 28.8125 49.875 28.8125 C 61.585048 28.8125 71.09375 38.289952 71.09375 50 C 71.09375 61.710048 61.585048 71.1875 49.875 71.1875 C 38.164952 71.1875 28.6875 61.710048 28.6875 50 C 28.6875 38.655891 37.578268 29.38038 48.78125 28.8125 z "
     id="path3097" />
  <path
     inkscape:connector-curvature="0"
     style="fill:url(#linearGradient2889);fill-opacity:1;stroke:none"
     d="m 49.899036,5.0576782 c -25.193364,0 -44.9012368,20.3110088 -44.9012368,45.5043728 0,25.193364 19.7078728,45.142491 44.9012368,45.142491 25.193364,0 45.59375,-19.8285 45.59375,-45.021864 0,-25.193364 -20.400386,-45.6249998 -45.59375,-45.6249998 z m 0.40625,7.4687498 c 21.13969,0 38.28125,17.14156 38.28125,38.28125 0,21.13969 -17.14156,38.25 -38.28125,38.25 -21.139691,0 -38.28125,-17.11031 -38.28125,-38.25 0,-21.13969 17.141559,-38.28125 38.28125,-38.28125 z"
     id="path2849"
     sodipodi:nodetypes="ssssssssss" />
  <path
     inkscape:connector-curvature="0"
     id="path3876"
     d="m 50.016822,4.7043213 c -25.193364,0 -45.0218641,20.4316367 -45.0218641,45.6250007 0,25.193364 19.8285001,45.021864 45.0218641,45.021864 25.193361,0 45.593751,-19.8285 45.593751,-45.021864 0,-25.193364 -20.40039,-45.6250007 -45.593751,-45.6250007 z m 0.40625,7.4687507 c 21.139691,0 38.281251,17.14156 38.281251,38.28125 0,21.13969 -17.14156,38.25 -38.281251,38.25 -21.13969,0 -38.28125,-17.11031 -38.28125,-38.25 0,-21.13969 17.14156,-38.28125 38.28125,-38.28125 z"
     style="fill:url(#radialGradient3878);fill-opacity:1;stroke:none"
     sodipodi:nodetypes="ssssssssss" />
  <path
     sodipodi:type="arc"
     style="fill:#bfbfbf;fill-opacity:1;stroke:url(#linearGradient4182);stroke-width:1;stroke-linecap:round;stroke-miterlimit:4;stroke-opacity:1;stroke-dasharray:none"
     id="path4174"
     sodipodi:cx="53.651356"
     sodipodi:cy="31.272085"
     sodipodi:rx="5.3592463"
     sodipodi:ry="5.3592463"
     d="m 59.010602,31.272085 a 5.3592463,5.3592463 0 1 1 -10.718493,0 5.3592463,5.3592463 0 1 1 10.718493,0 z"
     transform="translate(-3.5335689,1.1778563)" />
  <g
     style="font-size:8px;font-style:normal;font-variant:normal;font-weight:500;font-stretch:normal;line-height:125%;letter-spacing:0px;word-spacing:0px;fill:#525252;fill-opacity:1;stroke:none;font-family:ChopinScript;-inkscape-font-specification:ChopinScript Medium"
     id="text4184">
    <path
       d="m 45.796618,72.041155 c -0.448,-0.192 -0.664001,-0.24 -1.096,-0.24 -0.879999,0 -1.368,0.296 -1.392,0.296 0,0 -0.560001,-0.384 -1.56,-0.384 -1.567999,0 -2.144,0.808 -2.144,0.808 0,0 -0.432001,-0.144 -0.864,-0.144 -1.479999,0 -2.824,1.376001 -2.824,2.912 0,1.407998 1.048001,2.296 2.424,2.296 1.295998,0 2.728,-0.648001 3.088,-1.512 0.12,-0.288 0.488,-1.096 0.488,-1.096 0.24,0.16 0.352,0.336 0.352,0.544 0,0.295999 -0.064,0.648 -0.064,1.064 0,0.559999 0.56,1 1.216,1 0.631999,0 1.016,-0.360001 1.016,-0.832 0,-0.416 -0.32,-0.84 -0.32,-0.84 l -0.064,0.048 c 0.208,0.359999 0.288,0.616 0.288,0.792 0,0.383999 -0.336001,0.72 -0.752,0.72 -0.376,0 -0.672,-0.272001 -0.672,-0.696 l 0,-0.736 c 0,-0.448 -0.072,-0.576001 -0.536,-1.04 1.223999,-0.168 1.936,-0.744001 1.936,-1.584 0,-0.791999 -0.848,-1.208 -0.848,-1.248 0,0 0.488001,-0.296 1.232,-0.296 0.335999,0 0.72,0.056 1.08,0.216 l 0.016,-0.048 m -2.064,1.256 c 0,0.935999 -0.888001,1.672 -1.784,1.552 0.056,-0.256 0.184,-0.832001 0.376,-1.288 0.447999,-1.055999 0.984,-1.32 0.984,-1.32 0,0 0.424,0.240001 0.424,1.056 m -2.968,1.416 c -0.096,0.04 -1.504,0.623998 -1.504,-1.064 0,-0.448 0.168,-0.728001 0.352,-1.008 0.471999,0.231999 0.768,0.504 0.976,0.896 0.343999,0.663999 0.176,1.176 0.176,1.176 m 2.416,-2.544 c 0,0 -1.176001,0.600001 -1.72,1.816 -0.336,0.751999 -0.72,1.688 -0.872,2.016 -0.464,0.967999 -1.264001,1.472 -2.248,1.472 -1.543999,0 -2.352,-0.952002 -2.352,-2.184 0,-1.479999 1.328001,-2.856 2.752,-2.856 0.375999,0 0.8,0.16 0.8,0.16 -0.096,0.112 -0.368,0.544 -0.368,1.056 0,1.799998 1.52,1.192 1.592,1.16 -0.264,1.175999 -1.104001,2.008 -2.2,2.008 -1.007999,0 -1.520001,-0.528001 -1.864,-1.32 -0.16,0 -0.112,-0.064 -0.112,-0.064 0.439999,1.135999 1.112001,1.456 1.976,1.456 1.127999,0 2.048,-0.864002 2.296,-2.112 0.168,-0.096 0.328,-0.312 0.36,-0.448 l -0.04,-0.112 c -0.024,0.16 -0.192,0.36 -0.304,0.448 0,0 0.127999,-0.512001 -0.208,-1.16 -0.28,-0.544 -0.640001,-0.736 -0.992,-0.952 0,0 0.584001,-0.776 2.072,-0.776 0.975999,0 1.432,0.392 1.432,0.392"
       style="fill:#525252;fill-opacity:1"
       id="path4193" />
    <path
       d="m 48.169993,75.641155 -0.064,-0.056 c -0.208,0.2 -0.536001,0.504 -0.968,0.704 -0.088,0.04 -0.16,0.072 -0.24,0.088 0.056,-0.144 0.192,-0.360001 0.192,-0.64 0,-0.432 -0.280001,-0.752 -0.648,-0.752 -0.887999,0 -1.816,0.864001 -1.816,1.776 0,0.359999 0.24,0.744 0.616,0.744 0.751999,0 1.392,-0.688001 1.584,-1.008 0.12,-0.024 0.216,-0.064 0.36,-0.12 0.415999,-0.232 0.792,-0.504001 0.984,-0.736 m -1.56,-0.36 c 0,0.279999 -0.064,0.544 -0.312,1.072 -0.088,-0.016 -0.264,-0.12 -0.304,-0.24 0,0 0.216,-0.016 0.216,-0.16 0,-0.12 -0.072,-0.168 -0.168,-0.168 -0.128,0 -0.248,0.088 -0.248,0.256 0,0.152 0.12,0.288 0.44,0.392 -0.416,0.695999 -0.696001,0.968 -0.992,0.968 -0.112,0 -0.152,-0.088 -0.152,-0.272 0,-0.552 0.848,-2.048 1.328,-2.048 0.128,0 0.192,0.072 0.192,0.2"
       style="fill:#525252;fill-opacity:1"
       id="path4195" />
    <path
       d="m 51.251118,75.641155 -0.064,-0.056 -1.176,1.296 c -0.264,0.287999 -0.512,0.48 -0.664,0.48 -0.12,0 -0.168,-0.048 -0.168,-0.144 0,-0.048 0.064,-0.152 0.144,-0.272 l 0.744,-1.16 c 0.112,-0.176 0.152,-0.288 0.152,-0.432 0,-0.224 -0.144,-0.368 -0.368,-0.368 -0.352,0 -0.672001,0.208 -1.2,0.672 l 0.408,-0.768 c -0.128,0.056 -0.224,0.232 -0.296,0.232 -0.112,0 -0.136,-0.064 -0.28,-0.064 -0.128,0 -0.176,0.072 -0.24,0.192 l -1.232,2.352 c 0,0 0.224,-0.24 0.296,-0.24 0.088,0 0.192,0.072 0.296,0.072 0.184,0 0.32,-0.416001 0.576,-0.84 0.583999,-0.983999 1.168,-1.384 1.392,-1.384 0.088,0 0.12,0.024 0.12,0.072 0,0.04 -0.04,0.128 -0.112,0.24 l -0.664,1.016 c -0.176,0.263999 -0.176,0.368 -0.168,0.488 0.024,0.271999 0.16,0.488 0.464,0.488 0.343999,0 0.576,-0.224001 0.808,-0.488 0,0 1.056,-1.176 1.232,-1.384"
       style="fill:#525252;fill-opacity:1"
       id="path4197" />
    <path
       d="m 53.225243,75.641155 -0.064,-0.056 c -0.688,1.127999 -1.088001,1.264 -1.624,1.384 0.056,-0.088 0.144,-0.448001 0.144,-0.728 0,-0.344 -0.24,-0.872 -0.24,-0.872 0.104,-0.184 0.248,-0.376001 0.248,-0.616 0,-0.096 -0.08,-0.144 -0.2,-0.144 -0.296,0 -0.424,0.432 -0.424,0.768 0,0.319999 0.152,0.592 0.152,0.776 0,0.176 -0.088,0.552 -0.304,0.704 -0.168,-0.064 -0.344,-0.352 -0.568,-0.352 -0.232,0 -0.384,0.216 -0.384,0.448 0,0.343999 0.216,0.568 0.632,0.568 0.399999,0 0.712,-0.224 0.896,-0.44 0.487999,-0.072 0.992001,-0.200002 1.736,-1.44 m -1.632,-0.872 c 0,0.144 -0.032,0.264 -0.2,0.504 -0.04,-0.08 -0.048,-0.176 -0.048,-0.256 0.008,-0.184 0.096,-0.336 0.152,-0.336 0.072,-0.008 0.096,0.048 0.096,0.088 m -0.76,2.168 c -0.048,0.088 -0.192,0.12 -0.32,0.096 -0.136,-0.024 -0.256,-0.08 -0.256,-0.224 0,-0.088 0.064,-0.16 0.144,-0.16 0.136,0 0.24,0.2 0.432,0.288"
       style="fill:#525252;fill-opacity:1"
       id="path4199" />
    <path
       d="m 55.097993,75.641155 -0.064,-0.056 c -0.232,0.319999 -0.768,1 -0.768,1 -0.232,0.303999 -0.752001,0.752 -1.072,0.752 -0.112,0 -0.216,-0.2 -0.216,-0.304 0,-0.12 0.088,-0.256 0.184,-0.424 l 0.832,-1.456 0.6,0 0.048,-0.12 -0.6,0 0.808,-1.416 -0.088,0 c -0.608,0.919999 -0.792001,1.112 -1.264,1.416 l -0.648,0 -0.128,0.12 0.592,0 -0.632,1.272 c -0.104,0.208 -0.168,0.328 -0.168,0.552 0,0.287999 0.192,0.528 0.424,0.528 0.391999,0 0.936,-0.216001 1.408,-0.856 0,0 0.48,-0.576001 0.752,-1.008"
       style="fill:#525252;fill-opacity:1"
       id="path4201" />
    <path
       d="m 57.548993,75.641155 -0.064,-0.056 c -0.288,0.479999 -1.496001,1.792 -2.296,1.792 -0.16,0 -0.216,-0.128 -0.216,-0.296 0,-0.272 0.056,-0.368 0.144,-0.56 0.271999,0 1.656,-0.312001 1.656,-1.096 0,-0.248 -0.208,-0.44 -0.456,-0.44 -0.6,0 -1.832,0.688001 -1.832,1.8 0,0.367999 0.256,0.72 0.704,0.72 0.895999,0 2.12,-1.464001 2.36,-1.864 m -1.176,-0.368 c 0,0.295999 -0.728001,1.056 -1.176,1.056 0.407999,-0.807999 0.776,-1.24 1.008,-1.24 0.112,0 0.168,0.064 0.168,0.184"
       style="fill:#525252;fill-opacity:1"
       id="path4203" />
    <path
       d="m 60.650118,75.641155 -0.064,-0.056 c -1.007999,1.375998 -2.152001,1.824 -2.84,1.824 -0.2,0 -0.36,-0.12 -0.36,-0.304 0,-0.552 0.848,-2.04 1.36,-2.04 0.2,0 0.272,0.072 0.272,0.168 0,0.136 -0.192,0.264 -0.248,0.264 -0.064,0 -0.144,-0.032 -0.232,-0.104 -0.072,0.104 -0.08,0.216 -0.08,0.272 0,0.12 0.096,0.208 0.288,0.208 0.248,0 0.48,-0.232001 0.48,-0.472 0,-0.224 -0.208001,-0.416 -0.48,-0.416 -0.775999,0 -1.808,0.600001 -1.808,1.8 0,0.439999 0.248,0.72 0.808,0.72 0.887999,0 1.992001,-0.584002 2.904,-1.864"
       style="fill:#525252;fill-opacity:1"
       id="path4205" />
    <path
       d="m 63.759493,72.545155 c 0,-0.144 -0.184,-0.248 -0.328,-0.248 -0.799999,0 -2.76,3.072 -2.944,3.432 l -0.992,1.872 c 0.12,-0.048 0.232,-0.224 0.304,-0.224 0.072,0 0.168,0.064 0.256,0.064 0.271999,0 0.28,-0.368001 0.792,-1.184 0.287999,0.024 0.536,-0.024 0.536,0.072 0,0.168 -0.312,0.664 -0.312,0.864 0,0.184 0.168,0.312 0.352,0.312 0.567999,0 1.56,-1.376001 1.944,-1.864 l -0.064,-0.056 c 0,0 -1.352001,1.728 -1.664,1.728 -0.048,0 -0.088,-0.016 -0.088,-0.064 0,-0.12 0.336,-0.552 0.336,-0.752 0,-0.104 -0.048,-0.168 -0.144,-0.312 0.567999,-0.304 0.84,-0.592001 0.84,-0.888 0,-0.192 -0.128,-0.312 -0.32,-0.312 -0.256,0 -0.664001,0.24 -1.048,0.56 0,0 0.184,-0.296 0.256,-0.392 0.639999,-0.288 2.288,-1.768001 2.288,-2.608 m -0.384,0.064 c -0.016,0.495999 -0.928001,1.864 -1.8,2.352 0.192,-0.608 1.456,-2.52 1.712,-2.52 0.072,0 0.088,0.072 0.088,0.168 m -1.32,2.816 c 0,0.311999 -0.376,0.576 -0.624,0.664 -0.184,0.064 -0.376,0.056 -0.528,0.048 0.16,-0.312 0.744,-0.864 0.984,-0.864 0.088,0 0.168,0.024 0.168,0.152"
       style="fill:#525252;fill-opacity:1"
       id="path4207" />
  </g>
  <rect
     style="fill:url(#linearGradient4217);fill-opacity:1;stroke:url(#linearGradient4225);stroke-width:0.50000000000000000;stroke-linecap:round;stroke-miterlimit:4;stroke-opacity:1;stroke-dasharray:none"
     id="rect4209"
     width="3.0624263"
     height="3.0624263"
     x="48.645466"
     y="30.977621" />
  <path
     transform="matrix(0.30112581,0,0,0.30112581,49.806579,49.629457)"
     d="m 35.100117,51.884571 a 4.5347466,4.5347466 0 1 1 -9.069493,0 4.5347466,4.5347466 0 1 1 9.069493,0 z"
     sodipodi:ry="4.5347466"
     sodipodi:rx="4.5347466"
     sodipodi:cy="51.884571"
     sodipodi:cx="30.565371"
     id="path4229"
     style="fill:#8d9314;fill-opacity:1;stroke:#636363;stroke-width:0.2;stroke-linecap:round;stroke-miterlimit:4;stroke-opacity:1;stroke-dasharray:none"
     sodipodi:type="arc" />
  <path
     style="fill:none;stroke:url(#linearGradient3903);stroke-width:1.6;stroke-linecap:round;stroke-linejoin:miter;stroke-miterlimit:4;stroke-opacity:1;stroke-dasharray:none"
     d="M 25.559482,20.259129 C 37.685413,9.3555266 64.513744,5.2209199 81.036513,26.383981"
     id="path3127"
     inkscape:connector-curvature="0"
     sodipodi:nodetypes="cc" />
  <path
     sodipodi:nodetypes="cc"
     inkscape:connector-curvature="0"
     id="path3913"
     d="M 25.559482,20.259129 C 37.685413,9.3555266 64.513744,5.2209199 81.036513,26.383981"
     style="fill:none;stroke:url(#linearGradient3903);stroke-width:0.9;stroke-linecap:round;stroke-linejoin:miter;stroke-miterlimit:4;stroke-opacity:1;stroke-dasharray:none" />
  <path
     style="fill:none;stroke:url(#linearGradient3923);stroke-width:1.2;stroke-linecap:round;stroke-linejoin:miter;stroke-opacity:1;stroke-miterlimit:4;stroke-dasharray:none"
     d="M 23.792698,14.01649 C 43.964037,0.79781561 64.04109,4.436845 78.798587,15.665489"
     id="path3915"
     inkscape:connector-curvature="0"
     sodipodi:nodetypes="cc" />
  <path
     sodipodi:nodetypes="cc"
     inkscape:connector-curvature="0"
     id="path3925"
     d="M 23.792698,14.01649 C 43.964037,0.79781561 64.04109,4.436845 78.798587,15.665489"
     style="fill:none;stroke:url(#linearGradient3923);stroke-width:0.7;stroke-linecap:round;stroke-linejoin:miter;stroke-opacity:1;stroke-miterlimit:4;stroke-dasharray:none" />
  <path
     style="fill:none;stroke:url(#linearGradient3929);stroke-width:0.69999999;stroke-linecap:round;stroke-linejoin:miter;stroke-miterlimit:4;stroke-opacity:1;stroke-dasharray:none"
     d="M 24.263841,79.654596 C 41.53091,94.441528 62.673776,91.96887 76.678446,79.419025"
     id="path3927"
     inkscape:connector-curvature="0"
     sodipodi:nodetypes="cc" />
  <path
     sodipodi:type="arc"
     style="fill:#485608;fill-opacity:1;stroke:none"
     id="path3924"
     sodipodi:cx="44.457184"
     sodipodi:cy="63.918045"
     sodipodi:rx="0.5794183"
     sodipodi:ry="0.5794183"
     d="m 45.036602,63.918045 a 0.5794183,0.5794183 0 1 1 -1.158836,0 0.5794183,0.5794183 0 1 1 1.158836,0 z"
     transform="translate(-0.21069756,0.05267439)" />
  <path
     transform="translate(14.590806,1.3695341)"
     d="m 45.036602,63.918045 a 0.5794183,0.5794183 0 1 1 -1.158836,0 0.5794183,0.5794183 0 1 1 1.158836,0 z"
     sodipodi:ry="0.5794183"
     sodipodi:rx="0.5794183"
     sodipodi:cy="63.918045"
     sodipodi:cx="44.457184"
     id="path3926"
     style="fill:#485608;fill-opacity:1;stroke:none"
     sodipodi:type="arc" />
  <path
     sodipodi:type="arc"
     style="fill:#485608;fill-opacity:1;stroke:none"
     id="path3928"
     sodipodi:cx="44.457184"
     sodipodi:cy="63.918045"
     sodipodi:rx="0.5794183"
     sodipodi:ry="0.5794183"
     d="m 45.036602,63.918045 a 0.5794183,0.5794183 0 1 1 -1.158836,0 0.5794183,0.5794183 0 1 1 1.158836,0 z"
     transform="translate(23.387429,-15.802317)" />
  <path
     transform="translate(-3.265812,-11.64104)"
     d="m 45.036602,63.918045 a 0.5794183,0.5794183 0 1 1 -1.158836,0 0.5794183,0.5794183 0 1 1 1.158836,0 z"
     sodipodi:ry="0.5794183"
     sodipodi:rx="0.5794183"
     sodipodi:cy="63.918045"
     sodipodi:cx="44.457184"
     id="path3930"
     style="fill:#485608;fill-opacity:1;stroke:none"
     sodipodi:type="arc" />
</svg>
