<?xml version="1.0" encoding="UTF-8" standalone="no"?>
<!-- Created with Inkscape (http://www.inkscape.org/) -->

<svg
   xmlns:dc="http://purl.org/dc/elements/1.1/"
   xmlns:cc="http://creativecommons.org/ns#"
   xmlns:rdf="http://www.w3.org/1999/02/22-rdf-syntax-ns#"
   xmlns:svg="http://www.w3.org/2000/svg"
   xmlns="http://www.w3.org/2000/svg"
   xmlns:sodipodi="http://sodipodi.sourceforge.net/DTD/sodipodi-0.dtd"
   xmlns:inkscape="http://www.inkscape.org/namespaces/inkscape"
   id="svg2"
   version="1.1"
   inkscape:version="0.48.4 r9939"
   width="100"
   height="100"
   sodipodi:docname="clock-hour-hand.svg">
  <metadata
     id="metadata8">
    <rdf:RDF>
      <cc:Work
         rdf:about="">
        <dc:format>image/svg+xml</dc:format>
        <dc:type
           rdf:resource="http://purl.org/dc/dcmitype/StillImage" />
        <dc:title />
      </cc:Work>
    </rdf:RDF>
  </metadata>
  <defs
     id="defs6" />
  <sodipodi:namedview
     pagecolor="#ffffff"
     bordercolor="#666666"
     borderopacity="1"
     objecttolerance="10"
     gridtolerance="10"
     guidetolerance="10"
     inkscape:pageopacity="0"
     inkscape:pageshadow="2"
     inkscape:window-width="1680"
     inkscape:window-height="1027"
     id="namedview4"
     showgrid="false"
     inkscape:zoom="38.056487"
     inkscape:cx="17.209436"
     inkscape:cy="94.625"
     inkscape:window-x="-2"
     inkscape:window-y="-5"
     inkscape:window-maximized="1"
     inkscape:current-layer="svg2" />
  <path
     sodipodi:nodetypes="sssccccccccccccccccccccccccccccccccccccccccccccccccccssccccccccccccsssss"
     inkscape:connector-curvature="0"
     id="path2987"
     d="m -0.05434709,-2.1601769 c -0.31866783,0.00625 -0.66744018,0.084677 -1.04162531,0.2392341 -1.0271853,0.4243295 -1.7177228,2.3900979 -0.2111246,3.547117 1.28566046,0.9873528 2.5611347,0.1770381 3.2514898,-1.08383005 L 2.3666622,0.76752754 2.6903867,0.4719652 2.6341837,1.2179592 c -0.00686,0.3422722 0.244603,0.3922909 0.2674002,-0.028101 l 0.08449,-0.68972659 0.1407538,0 C 3.5835658,1.5130229 4.2973995,1.5611682 5.0551937,1.4854204 l -0.098541,0.436381 0.095019,0.317146 C 6.9333874,0.96614928 8.5644705,0.67284056 10.446183,0.45914502 11.491572,0.43465282 13.458994,0.25523365 15.107376,0.25523365 14.899958,0.63016378 14.804918,1.7123538 15.422358,1.6923934 l -0.0281,0.4926444 c -0.06644,0.2178761 0.05246,0.2658996 0.16892,0.3237243 0.198331,-0.056202 0.271083,-0.1594272 0.211132,-0.3096738 l 0.05621,-0.2111369 c 0.420266,0.1078474 0.892803,0.2422349 1.266798,-0.1125916 0.166425,-0.034953 0.318355,-0.053081 0.323732,0.2111369 0,0 0.359315,0.1574887 0.23929,-0.2111369 -0.275574,-0.8464693 1.256935,-1.11330593 1.505414,-0.99190676 0.135512,0 0.50226,0.0468351 0.394169,0.38005286 -0.04247,0.1596136 0.04995,0.4059034 0.351887,0.3378359 0.583002,-0.2490353 -0.197099,-0.93999351 -0.400678,-1.26727826 l 8.303759,0 c 0.508615,-0.24999478 0.472102,-0.46105191 0,-0.64099547 l -8.303759,-0.0525535 0.572067,-0.94830967 c 0.157186,-0.1548693 0.138824,-0.3143574 -0.0562,-0.4926445 -0.166111,-0.059949 -0.383987,-0.095293 -0.464544,0.2111328 0.01188,0.1186499 0.106663,0.2332408 0.01435,0.3518906 -0.650073,0.65912733 -1.315761,0.25628126 -1.942477,-0.436381 -0.0406,-0.1750999 -0.140632,-0.3611928 -0.0281,-0.4926445 0.06183,-0.128017 -0.0356,-0.2725176 -0.182969,-0.1407537 L 17.226244,-1.913092 C 16.785545,-2.210528 16.28647,-2.3590269 15.635647,-2.0960629 l -0.0281,-0.2251834 c 0.245415,-0.2322432 0.0062,-0.3324711 -0.09854,-0.3237893 -0.151058,0.018734 -0.200517,0.1178388 -0.211129,0.2534104 l 0.04247,0.6615644 c -0.606438,0.2851327 -0.610908,0.98667785 -0.242677,1.31802169 -1.606509,0.10509077 -3.217597,0.0148988 -4.594333,-0.0215355 C 8.3873696,-0.57489203 6.3214301,-0.85847261 5.0419574,-2.2136969 l 0,0.8558382 C 4.1497725,-1.5059804 3.5530884,-1.2182889 3.1276356,-0.3163024 L 3.0150439,-1.2874797 C 2.9881996,-1.4334808 2.8220858,-1.4612698 2.7475828,-1.3018351 l -0.056202,0.98528906 -0.3096089,-0.309609 -0.3096777,0.18296668 C 1.6021815,-1.5534971 0.90252018,-2.1779663 -0.05334955,-2.1604201 z M 16.343548,-1.6362136 c 0.702229,0.051666 1.761557,1.66062623 2.686025,1.65885008 -1.104947,-0.005432 -1.914914,1.59412912 -2.740917,1.39710382 -0.630471,0.086514 -1.252418,-0.7132246 -0.592228,-1.24333746 l 0.422269,0 c 0.18609,-0.11858495 0.136942,-0.23336234 -0.01435,-0.35195138 l -0.450429,0 C 15.173314,-1.1641991 15.759342,-1.5660106 16.343548,-1.6362136 z M 4.4414456,-0.76387807 C 5.6943408,-1.1815741 6.7234147,-0.37259378 8.0438552,0.03187422 6.7914135,0.39893875 6.2830104,0.94071223 4.7341955,0.86327753 3.5904413,0.56068649 3.7244589,-0.38409899 4.4414456,-0.76387807 z m -4.48174609,0.26460506 c 0.28176715,0 0.52081467,0.22499687 0.52081467,0.50675996 0,0.28175906 -0.23904752,0.52080657 -0.52081467,0.52080657 -0.28175905,0 -0.50669508,-0.23904751 -0.50669508,-0.52080657 0,-0.28176309 0.22493603,-0.50675996 0.50669508,-0.50675996 z"
     style="fill:#000000;fill-opacity:1;stroke:none" />
</svg>
