<?xml version="1.0" encoding="UTF-8" standalone="no"?>
<!-- Created with Inkscape (http://www.inkscape.org/) -->

<svg
   xmlns:dc="http://purl.org/dc/elements/1.1/"
   xmlns:cc="http://creativecommons.org/ns#"
   xmlns:rdf="http://www.w3.org/1999/02/22-rdf-syntax-ns#"
   xmlns:svg="http://www.w3.org/2000/svg"
   xmlns="http://www.w3.org/2000/svg"
   xmlns:xlink="http://www.w3.org/1999/xlink"
   xmlns:sodipodi="http://sodipodi.sourceforge.net/DTD/sodipodi-0.dtd"
   xmlns:inkscape="http://www.inkscape.org/namespaces/inkscape"
   width="100"
   height="100"
   id="svg2"
   sodipodi:version="0.32"
   inkscape:version="0.47 r22583"
   version="1.0"
   sodipodi:docname="clock-minute-hand.svg">
  <defs
     id="defs4">
    <linearGradient
       id="linearGradient4053">
      <stop
         style="stop-color:#9c7a1a;stop-opacity:1;"
         offset="0"
         id="stop4055" />
      <stop
         id="stop4063"
         offset="0.11190382"
         style="stop-color:#ffd903;stop-opacity:0.97647059;" />
      <stop
         id="stop4061"
         offset="0.5"
         style="stop-color:#ffd700;stop-opacity:0.95686275;" />
      <stop
         style="stop-color:#ffb600;stop-opacity:0.91379309;"
         offset="1"
         id="stop4057" />
    </linearGradient>
    <linearGradient
       id="linearGradient3617">
      <stop
         style="stop-color:#ffcc00;stop-opacity:1;"
         offset="0"
         id="stop3619" />
      <stop
         style="stop-color:#f0ff00;stop-opacity:0.81034482;"
         offset="1"
         id="stop3621" />
    </linearGradient>
    <linearGradient
       id="linearGradient3609">
      <stop
         style="stop-color:#ffd900;stop-opacity:1;"
         offset="0"
         id="stop3611" />
      <stop
         style="stop-color:#ffd900;stop-opacity:0;"
         offset="1"
         id="stop3613" />
    </linearGradient>
    <inkscape:perspective
       sodipodi:type="inkscape:persp3d"
       inkscape:vp_x="0 : 50 : 1"
       inkscape:vp_y="0 : 1000 : 0"
       inkscape:vp_z="100 : 50 : 1"
       inkscape:persp3d-origin="50 : 33.333333 : 1"
       id="perspective24" />
    <linearGradient
       id="linearGradient2202">
      <stop
         style="stop-color:#a5adad;stop-opacity:1;"
         offset="0"
         id="stop2204" />
      <stop
         style="stop-color:#e8f4ed;stop-opacity:1;"
         offset="1"
         id="stop2206" />
    </linearGradient>
    <inkscape:perspective
       id="perspective2863"
       inkscape:persp3d-origin="0.5 : 0.33333333 : 1"
       inkscape:vp_z="1 : 0.5 : 1"
       inkscape:vp_y="0 : 1000 : 0"
       inkscape:vp_x="0 : 0.5 : 1"
       sodipodi:type="inkscape:persp3d" />
    <inkscape:perspective
       id="perspective2863-0"
       inkscape:persp3d-origin="0.5 : 0.33333333 : 1"
       inkscape:vp_z="1 : 0.5 : 1"
       inkscape:vp_y="0 : 1000 : 0"
       inkscape:vp_x="0 : 0.5 : 1"
       sodipodi:type="inkscape:persp3d" />
    <inkscape:perspective
       id="perspective2863-5"
       inkscape:persp3d-origin="0.5 : 0.33333333 : 1"
       inkscape:vp_z="1 : 0.5 : 1"
       inkscape:vp_y="0 : 1000 : 0"
       inkscape:vp_x="0 : 0.5 : 1"
       sodipodi:type="inkscape:persp3d" />
    <inkscape:perspective
       id="perspective2905"
       inkscape:persp3d-origin="0.5 : 0.33333333 : 1"
       inkscape:vp_z="1 : 0.5 : 1"
       inkscape:vp_y="0 : 1000 : 0"
       inkscape:vp_x="0 : 0.5 : 1"
       sodipodi:type="inkscape:persp3d" />
    <inkscape:perspective
       id="perspective2905-3"
       inkscape:persp3d-origin="0.5 : 0.33333333 : 1"
       inkscape:vp_z="1 : 0.5 : 1"
       inkscape:vp_y="0 : 1000 : 0"
       inkscape:vp_x="0 : 0.5 : 1"
       sodipodi:type="inkscape:persp3d" />
    <inkscape:perspective
       id="perspective2905-0"
       inkscape:persp3d-origin="0.5 : 0.33333333 : 1"
       inkscape:vp_z="1 : 0.5 : 1"
       inkscape:vp_y="0 : 1000 : 0"
       inkscape:vp_x="0 : 0.5 : 1"
       sodipodi:type="inkscape:persp3d" />
    <inkscape:perspective
       id="perspective2961"
       inkscape:persp3d-origin="0.5 : 0.33333333 : 1"
       inkscape:vp_z="1 : 0.5 : 1"
       inkscape:vp_y="0 : 1000 : 0"
       inkscape:vp_x="0 : 0.5 : 1"
       sodipodi:type="inkscape:persp3d" />
    <inkscape:perspective
       id="perspective2985"
       inkscape:persp3d-origin="0.5 : 0.33333333 : 1"
       inkscape:vp_z="1 : 0.5 : 1"
       inkscape:vp_y="0 : 1000 : 0"
       inkscape:vp_x="0 : 0.5 : 1"
       sodipodi:type="inkscape:persp3d" />
    <inkscape:perspective
       id="perspective3039"
       inkscape:persp3d-origin="0.5 : 0.33333333 : 1"
       inkscape:vp_z="1 : 0.5 : 1"
       inkscape:vp_y="0 : 1000 : 0"
       inkscape:vp_x="0 : 0.5 : 1"
       sodipodi:type="inkscape:persp3d" />
    <inkscape:perspective
       id="perspective3039-2"
       inkscape:persp3d-origin="0.5 : 0.33333333 : 1"
       inkscape:vp_z="1 : 0.5 : 1"
       inkscape:vp_y="0 : 1000 : 0"
       inkscape:vp_x="0 : 0.5 : 1"
       sodipodi:type="inkscape:persp3d" />
    <radialGradient
       inkscape:collect="always"
       xlink:href="#linearGradient4053"
       id="radialGradient4065"
       cx="31.680971"
       cy="-0.81491143"
       fx="31.680971"
       fy="-0.81491143"
       r="55.020767"
       gradientTransform="matrix(0.82245174,0.05863363,-0.00327044,0.04587428,5.6222378,-2.635099)"
       gradientUnits="userSpaceOnUse" />
  </defs>
  <sodipodi:namedview
     id="base"
     pagecolor="#ffffff"
     bordercolor="#666666"
     borderopacity="1.0"
     inkscape:pageopacity="0.0"
     inkscape:pageshadow="2"
     inkscape:zoom="16"
     inkscape:cx="18.588988"
     inkscape:cy="99.287235"
     inkscape:document-units="px"
     inkscape:current-layer="g3982"
     showguides="true"
     inkscape:guide-bbox="true"
     inkscape:window-width="1280"
     inkscape:window-height="974"
     inkscape:window-x="0"
     inkscape:window-y="24"
     showgrid="false"
     inkscape:window-maximized="1"
     inkscape:snap-global="false">
    <sodipodi:guide
       orientation="horizontal"
       position="50"
       id="guide1307" />
    <sodipodi:guide
       orientation="vertical"
       position="50"
       id="guide1309" />
    <sodipodi:guide
       orientation="horizontal"
       position="100"
       id="guide1311" />
    <sodipodi:guide
       orientation="vertical"
       position="0"
       id="guide1313" />
    <sodipodi:guide
       orientation="vertical"
       position="100"
       id="guide1315" />
    <sodipodi:guide
       orientation="horizontal"
       position="0"
       id="guide1317" />
    <sodipodi:guide
       orientation="horizontal"
       position="90.060241"
       id="guide1319" />
    <sodipodi:guide
       orientation="vertical"
       position="10.061681,87.654783"
       id="guide1321" />
    <sodipodi:guide
       orientation="vertical"
       position="90.060241"
       id="guide1323" />
    <sodipodi:guide
       orientation="horizontal"
       position="10.040161"
       id="guide1325" />
    <sodipodi:guide
       orientation="vertical"
       position="-10.040161"
       id="guide4953" />
    <sodipodi:guide
       orientation="vertical"
       position="40.060241"
       id="guide4955" />
    <sodipodi:guide
       orientation="vertical"
       position="30.02008"
       id="guide4957" />
  </sodipodi:namedview>
  <metadata
     id="metadata7">
    <rdf:RDF>
      <cc:Work
         rdf:about="">
        <dc:format>image/svg+xml</dc:format>
        <dc:type
           rdf:resource="http://purl.org/dc/dcmitype/StillImage" />
        <dc:title></dc:title>
      </cc:Work>
    </rdf:RDF>
  </metadata>
  <g
     inkscape:label="Ebene 1"
     inkscape:groupmode="layer"
     id="layer1" />
  <g
     id="g3982"
     inkscape:groupmode="layer"
     inkscape:label="Ebene 1 copy">
    <g
       id="g4090">
      <g
         id="g3984"
         style="fill:#fff900;fill-opacity:1">
        <g
           id="g3986"
           style="fill:#fff900;fill-opacity:1">
          <g
             id="g3988"
             transform="matrix(1,0,0,0.94544781,0,0.02656341)"
             style="fill:#fff900;fill-opacity:1">
            <g
               transform="translate(0.03559927,-9.9425619)"
               id="g3990"
               style="fill:#fff900;fill-opacity:1">
              <g
                 id="g4008"
                 style="fill:#fff900;fill-opacity:1" />
            </g>
          </g>
        </g>
        <path
           d="M 10.375,0.62500025 9.366326,-0.03072912 8.4364587,0.73265224 8.5,-0.46874973 7.3739587,-0.89234777 8.446174,-1.4380204 8.25,-2.6249998 l 1.008674,0.6557294 0.929867,-0.7633814 -0.06354,1.201402 1.126041,0.4235981 -1.072215,0.54567255 0.196174,1.1869794 z m -29.843606,-1.31308286 0.0261,-5.90912839 5.104407,2.9771652 5.1044065,2.97716522 -5.1305035,2.93196328 -5.130505,2.9319633 0.0261,-5.90912861 z m -0.0531,-0.98747029 100.448758,0 0,1.85257932 -100.448758,0 0,-1.85257932 z M 25.44244,2.8414977 24.192054,0.79390997 22.941667,-1.2536783 l 2.500773,0 2.500773,0 -1.250387,2.04758827 -1.250386,2.04758773 z m 0,-7.3128151 1.250386,2.0475877 1.250387,2.0475883 -2.500773,0 -2.500773,0 1.250387,-2.0475883 1.250386,-2.0475877 z m -15.985173,-5.1677223 1.429013,2.3401003 1.429014,2.3401 -2.858027,0 -2.8580273,0 1.4290129,-2.3401 1.4290144,-2.3401003 z M 9.5603933,8.0092168 8.13138,5.6691165 l -1.4290132,-2.3401 2.8580265,0 2.8580277,0 -1.429013,2.3401 -1.4290147,2.3401003 z M 9.354133,7.1316793 7.9251197,4.791579 l -1.4290132,-2.3401 2.8580265,0 2.858027,0 -1.429013,2.3401 -1.429014,2.3401003 z m 77.347607,-7.70283098 -3.171252,1.73104298 -3.17125,1.7310427 0,-3.46208568 0,-3.46208452 3.171252,1.7310424 3.17125,1.73104212 z m 0,0 -3.171252,1.73104298 -3.17125,1.7310427 0,-3.46208568 0,-3.46208452 3.171252,1.7310424 3.17125,1.73104212 z M 73.713889,0.18147926 C 73.242398,1.1208213 72.095489,1.5016897 71.152196,1.0321739 70.208902,0.56265803 69.826431,-0.57944677 70.297922,-1.518789 c 0.47149,-0.9393422 1.6184,-1.3202117 2.561693,-0.8506959 0.653073,0.3250611 1.062835,0.9925117 1.055656,1.71952756 M 14.348069,1.4786667 C 12.998122,3.9590513 9.7143525,4.9647556 7.0135652,3.724973 4.3127777,2.4851903 3.2177055,-0.53060069 4.5676527,-3.0109859 5.9176,-5.4913711 9.2013693,-6.4970781 11.902156,-5.2572955 c 1.869843,0.8583419 3.043054,2.6207822 3.022498,4.54050773 M 28.420988,0.54580965 C 27.580291,1.9667275 25.535282,2.5428572 23.853331,1.832633 c -1.68195,-0.7102243 -2.36392,-2.43785607 -1.523223,-3.8587743 0.840697,-1.4209182 2.885707,-1.9970494 4.567657,-1.2868252 1.164469,0.4917114 1.895101,1.5013463 1.882299,2.60108394 M 61.026889,0.53532029 C 60.313505,1.8117654 58.578185,2.3293167 57.150944,1.691305 55.723703,1.0532933 55.145008,-0.49868041 55.858392,-1.7751258 c 0.713385,-1.2764454 2.448705,-1.7939981 3.875946,-1.1559864 0.988125,0.4417163 1.608113,1.3486959 1.59725,2.33661697 m -79.203814,-0.46417657 102.408235,0 0,0.9750427 -102.408235,0 0,-0.9750427 z m 1.958449,2.01321068 c -0.967782,1.68579182 -3.321928,2.36932062 -5.258132,1.52670332 -1.936204,-0.8426174 -2.721265,-2.89229581 -1.753483,-4.5780858 0.967782,-1.6857904 3.321928,-2.3693177 5.258132,-1.5267011 1.340496,0.5833706 2.181575,1.7812105 2.166838,3.08594931"
           style="fill:url(#radialGradient4065);fill-opacity:1"
           transform="matrix(0.34719909,0,0,0.34719909,6.813727,0.22827604)"
           id="path4024" />
      </g>
      <path
         transform="matrix(1.0505076,0,0,1.0505076,0.27649101,-9.5202254)"
         d="M 10.3125,9.875 9.6526034,9.6172089 9.4633883,10.299937 9.1790568,9.6510337 8.5625,10 8.8202911,9.3401034 8.1375631,9.1508883 8.7864663,8.8665568 8.4375,8.25 9.0973966,8.5077911 9.2866117,7.8250631 9.5709432,8.4739663 10.1875,8.125 9.9297089,8.7848966 10.612437,8.9741117 9.9635337,9.2584432 10.3125,9.875 z"
         inkscape:randomized="0"
         inkscape:rounded="0"
         inkscape:flatsided="false"
         sodipodi:arg2="1.1067898"
         sodipodi:arg1="0.7140907"
         sodipodi:r2="0.62029481"
         sodipodi:r1="1.2405896"
         sodipodi:cy="9.0625"
         sodipodi:cx="9.375"
         sodipodi:sides="8"
         id="path4067"
         style="fill:#fff900;fill-opacity:1"
         sodipodi:type="star" />
    </g>
  </g>
</svg>
