<?xml version="1.0" encoding="UTF-8" standalone="no"?>
<!-- Created with Inkscape (http://www.inkscape.org/) -->

<svg
   xmlns:dc="http://purl.org/dc/elements/1.1/"
   xmlns:cc="http://creativecommons.org/ns#"
   xmlns:rdf="http://www.w3.org/1999/02/22-rdf-syntax-ns#"
   xmlns:svg="http://www.w3.org/2000/svg"
   xmlns="http://www.w3.org/2000/svg"
   xmlns:sodipodi="http://sodipodi.sourceforge.net/DTD/sodipodi-0.dtd"
   xmlns:inkscape="http://www.inkscape.org/namespaces/inkscape"
   id="svg2"
   version="1.1"
   inkscape:version="0.48.2 r9819"
   width="100"
   height="100"
   sodipodi:docname="clock-minute-hand.svg">
  <metadata
     id="metadata8">
    <rdf:RDF>
      <cc:Work
         rdf:about="">
        <dc:format>image/svg+xml</dc:format>
        <dc:type
           rdf:resource="http://purl.org/dc/dcmitype/StillImage" />
        <dc:title></dc:title>
      </cc:Work>
    </rdf:RDF>
  </metadata>
  <defs
     id="defs6" />
  <sodipodi:namedview
     pagecolor="#ffffff"
     bordercolor="#666666"
     borderopacity="1"
     objecttolerance="10"
     gridtolerance="10"
     guidetolerance="10"
     inkscape:pageopacity="0"
     inkscape:pageshadow="2"
     inkscape:window-width="1680"
     inkscape:window-height="1027"
     id="namedview4"
     showgrid="false"
     showguides="true"
     inkscape:guide-bbox="true"
     inkscape:snap-global="false"
     inkscape:zoom="39.718093"
     inkscape:cx="5.568197"
     inkscape:cy="99.880446"
     inkscape:window-x="-2"
     inkscape:window-y="-5"
     inkscape:window-maximized="1"
     inkscape:current-layer="svg2" />
  <path
     style="fill:#000000;fill-opacity:0.56;stroke:none"
     d="m -6.2573448,-0.52306343 26.7921558,0.18479191 0.510851,0.17806873 0.742326,-0.97418501 0.694435,0.97418501 c 0.151904,-0.67465722 0.288184,-1.28855701 0.726362,-2.02876551 0.483737,-0.8171735 1.420344,-0.6722404 1.939628,0 0.536151,0.6940738 1.015959,1.60872115 1.859808,1.85069678 l 9.322984,0.17806873 0,0.37468478 -9.322984,0.2323944 c -0.749069,0.15329222 -1.353918,1.10232271 -1.859808,1.85120271 -0.483011,0.7150143 -1.501151,0.6802784 -1.939628,0 -0.2864,-0.4443354 -0.604774,-1.39558606 -0.726362,-2.08359711 L 21.787988,1.2162415 21.045662,0.21448199 20.534811,0.44687639 -6.2573448,0.60236938 c -0.7401648,-0.0871282 -0.7399167,-1.03134882 0,-1.12543281 z"
     id="path2989"
     inkscape:connector-curvature="0"
     sodipodi:nodetypes="cccccssccccsscccccc" />
</svg>
