<?xml version="1.0" encoding="UTF-8" standalone="no"?>
<svg
   xmlns:dc="http://purl.org/dc/elements/1.1/"
   xmlns:cc="http://creativecommons.org/ns#"
   xmlns:rdf="http://www.w3.org/1999/02/22-rdf-syntax-ns#"
   xmlns:svg="http://www.w3.org/2000/svg"
   xmlns="http://www.w3.org/2000/svg"
   xmlns:sodipodi="http://sodipodi.sourceforge.net/DTD/sodipodi-0.dtd"
   xmlns:inkscape="http://www.inkscape.org/namespaces/inkscape"
   width="100"
   height="100"
   viewBox="0 0 80.000033 79.999982"
   id="svg2"
   version="1.1"
   inkscape:version="0.48.4 r9939"
   sodipodi:docname="clock-minute-hand.svg">
  <metadata
     id="metadata9">
    <rdf:RDF>
      <cc:Work
         rdf:about="">
        <dc:format>image/svg+xml</dc:format>
        <dc:type
           rdf:resource="http://purl.org/dc/dcmitype/StillImage" />
        <dc:title></dc:title>
      </cc:Work>
    </rdf:RDF>
  </metadata>
  <defs
     id="defs7" />
  <sodipodi:namedview
     pagecolor="#ffffff"
     bordercolor="#666666"
     borderopacity="1"
     objecttolerance="10"
     gridtolerance="10"
     guidetolerance="10"
     inkscape:pageopacity="0"
     inkscape:pageshadow="2"
     inkscape:window-width="1680"
     inkscape:window-height="1027"
     id="namedview5"
     showgrid="false"
     inkscape:zoom="30.13"
     inkscape:cx="21.550044"
     inkscape:cy="100.10299"
     inkscape:window-x="-2"
     inkscape:window-y="-5"
     inkscape:window-maximized="1"
     inkscape:current-layer="svg2"
     inkscape:snap-global="false"
     showguides="true"
     inkscape:guide-bbox="true">
    <sodipodi:guide
       orientation="1,0"
       position="0.00390625,100.42188"
       id="guide2985" />
    <sodipodi:guide
       orientation="0,1"
       position="-0.25390625,99.996094"
       id="guide2987" />
    <sodipodi:guide
       orientation="0,1"
       position="43.503906,100.30078"
       id="guide2989" />
    <sodipodi:guide
       orientation="0,1"
       position="43.40625,99.695312"
       id="guide2991" />
    <sodipodi:guide
       orientation="1,0"
       position="45.984375,100.83594"
       id="guide2993" />
  </sodipodi:namedview>
  <path
     style="fill:#000000;fill-opacity:0.63999999;stroke:none"
     d="m -0.1875,-2.875 c -0.9236608,0.112525 -1.684899,0.4460716 -2.21875,1.25 -1.2297482,1.85182301 -0.046293,4.2845938 2.21875,4.3125 0.88765088,0.00988 1.5471603,-0.1054103 2.21875,-0.75 0.497841,-0.4780373 0.6166276,-1.03420008 0.875,-1.21875 0.2070587,-0.14673994 0.6265301,-0.1757975 0.875,-0.1875 l 0.0625,2.0625 C 3.9535875,2.5748625 4.0608238,2.5774125 4.15625,2.5 4.3741124,2.3244513 4.3125,1.5299824 4.3125,1.25 c 0.6661885,0.3772099 1.1484953,0.5241936 1.875,0.1875 0.6130747,1.3404807 2.373299,1.3584819 2.90625,0 0.4051148,0.4033136 0.93438,0.9261788 1.53125,1 l 0.53125,0 c 0.507744,0.025212 0.40519,0.107125 0.96875,0 l 0,-0.1875 C 11.115814,1.9601176 11.009815,2.1573309 10.25,1.15625 c 1.644765,0.075625 1.98117,0.7207976 2.96875,0.90625 l 0,-0.46875 c 1.174832,0 1.630218,0.1357147 2.625,-0.625 0,0.4474273 -0.01342,0.9062252 0.09375,1.34375 0.03151,0.1314362 0.094,0.4000837 0.28125,0.28125 0.159345,-0.100825 0.15535,-0.4593551 0.15625,-0.625 l 0,-1.4375 C 26.246326,0.38972903 28.400868,0.3028514 38.200465,0.3125 c 0.0034,-0.27969856 -0.0025,-0.41917626 0,-0.59375 -9.844248,0.0157712 -12.038858,-0.0288837 -21.856715,-0.03125 -0.0205,-0.53093739 -0.07245,-1.1273488 -0.0625,-1.875 -0.0027,-0.1656449 -0.001,-0.6611449 -0.3125,-0.5 -0.286281,0.1476387 -0.126801,0.9279676 -0.125,1.21875 l 0,0.375 c -0.173749,-0.094525 -0.364444,-0.1809363 -0.5625,-0.21875 -0.533851,-0.104425 -1.112396,0.2801915 -1.125,0.84375 -0.0099,0.43392482 0.463643,0.78856388 -0.21875,1.09375 -0.338496,0.12333745 -0.890798,0.074725 -1.25,0 -1.261257,-0.17825118 -1.505983,-0.33086395 -2.625,-0.8125 0.224164,-0.11162495 0.4155,-0.18864758 0.59375,-0.375 0.144041,-0.15124369 0.240738,-0.32689133 0.28125,-0.53125 0.07113,-0.3529011 -0.0052,-0.8100463 -0.34375,-1 -0.532951,-0.2988836 -1.1160087,0.1029715 -0.90625,0.71875 0.054013,0.1602462 0.095676,0.2444638 0.1875,0.375 -1.142422,0.3673061 -1.5268242,-0.2913852 -2.5,-0.6875 -1.1082133,-0.4510273 -2.1586441,-0.2616172 -3.0625,0.5 0,-0.2700774 0.056215,-1.3667613 -0.15625,-1.5 -0.3664036,-0.2304662 -0.34375,0.6264038 -0.34375,0.78125 -0.00175,0.3970098 0.1330035,1.08088627 -0.40625,1.125 -0.103525,0.0315 -0.2474238,0.0197875 -0.34375,0 C 2.7096001,-0.94689868 2.6818636,-1.4120127 2.28125,-1.90625 1.7086877,-2.613851 0.70645338,-2.9848337 -0.1875,-2.875 z M 6.46875,-1 c 0.6994972,0.13143995 1.2144777,0.25266652 1.625,0.90625 C 8.3935336,0.38518355 8.5413185,1.4007001 7.96875,1.75 7.7571901,1.8787337 7.5189162,1.8723 7.28125,1.875 7.364075,1.2277152 7.4055023,1.1355685 6.84375,0.71875 7.0454062,-0.11038341 6.8909648,-0.30680404 6.46875,-1 z m -6.5,0.1875 c 0.45327362,0 0.8125,0.35922638 0.8125,0.8125 0,0.45327362 -0.35922638,0.8125 -0.8125,0.8125 C -0.48452362,0.8125 -0.875,0.45327362 -0.875,0 c 0,-0.45327362 0.39047638,-0.8125 0.84375,-0.8125 z"
     transform="matrix(0.80000033,0,0,0.80000033,0,-2.55e-5)"
     id="path2982"
     inkscape:connector-curvature="0"
     sodipodi:nodetypes="ccccccccccccccccccccccccccccccccccccccccccccccccccccccsssss" />
</svg>
