<?xml version="1.0" encoding="UTF-8" standalone="no"?>
<!-- Created with Inkscape (http://www.inkscape.org/) -->

<svg
   xmlns:dc="http://purl.org/dc/elements/1.1/"
   xmlns:cc="http://creativecommons.org/ns#"
   xmlns:rdf="http://www.w3.org/1999/02/22-rdf-syntax-ns#"
   xmlns:svg="http://www.w3.org/2000/svg"
   xmlns="http://www.w3.org/2000/svg"
   xmlns:sodipodi="http://sodipodi.sourceforge.net/DTD/sodipodi-0.dtd"
   xmlns:inkscape="http://www.inkscape.org/namespaces/inkscape"
   id="svg2"
   version="1.1"
   inkscape:version="0.48.2 r9819"
   width="100"
   height="100"
   sodipodi:docname="clock-hour-hand.svg">
  <metadata
     id="metadata8">
    <rdf:RDF>
      <cc:Work
         rdf:about="">
        <dc:format>image/svg+xml</dc:format>
        <dc:type
           rdf:resource="http://purl.org/dc/dcmitype/StillImage" />
        <dc:title />
      </cc:Work>
    </rdf:RDF>
  </metadata>
  <defs
     id="defs6" />
  <sodipodi:namedview
     pagecolor="#ffffff"
     bordercolor="#666666"
     borderopacity="1"
     objecttolerance="10"
     gridtolerance="10"
     guidetolerance="10"
     inkscape:pageopacity="0"
     inkscape:pageshadow="2"
     inkscape:window-width="1680"
     inkscape:window-height="1027"
     id="namedview4"
     showgrid="false"
     showguides="true"
     inkscape:guide-bbox="true"
     inkscape:snap-global="false"
     inkscape:zoom="38.151255"
     inkscape:cx="13.729098"
     inkscape:cy="100.01425"
     inkscape:window-x="-2"
     inkscape:window-y="-5"
     inkscape:window-maximized="1"
     inkscape:current-layer="svg2" />
  <path
     sodipodi:nodetypes="cccccssccccsscccccc"
     inkscape:connector-curvature="0"
     id="path2989"
     d="m -4.064732,-0.51373064 16.114928,0.0186693 0.431439,0.18548271 0.607311,-0.76618767 0.575058,0.89564752 c 0.125784,-0.62026748 0.238643,-1.18467212 0.60149,-1.86520502 0.400577,-0.7512966 1.176178,-0.6180487 1.606189,0 0.44398,0.6381172 0.827377,1.32779476 1.526159,1.55026246 l 10.798348,0.18548271 c 0.386463,0 0.348733,0.59355739 0,0.59355739 L 17.397842,0.44473288 c -0.620296,0.14094184 -1.107238,0.94674272 -1.526159,1.63523972 -0.399976,0.6573769 -1.24309,0.6254347 -1.606189,0 C 14.028329,1.6714603 13.764688,0.79690116 13.664004,0.16435865 L 13.088946,1.0853565 12.481635,0.28397875 12.050196,0.44473288 -4.064732,0.52097301 c -0.5826921,-0.0164488 -0.4567654,-1.11515807 0,-1.03470365 z"
     style="fill:#000000;fill-opacity:1;stroke:none" />
</svg>
