<?xml version="1.0" encoding="UTF-8" standalone="no"?>
<!-- Created with Inkscape (http://www.inkscape.org/) -->

<svg
   xmlns:dc="http://purl.org/dc/elements/1.1/"
   xmlns:cc="http://creativecommons.org/ns#"
   xmlns:rdf="http://www.w3.org/1999/02/22-rdf-syntax-ns#"
   xmlns:svg="http://www.w3.org/2000/svg"
   xmlns="http://www.w3.org/2000/svg"
   xmlns:sodipodi="http://sodipodi.sourceforge.net/DTD/sodipodi-0.dtd"
   xmlns:inkscape="http://www.inkscape.org/namespaces/inkscape"
   id="svg2"
   version="1.1"
   inkscape:version="0.48.4 r9939"
   width="100"
   height="100"
   sodipodi:docname="clock-minute-hand.svg">
  <metadata
     id="metadata8">
    <rdf:RDF>
      <cc:Work
         rdf:about="">
        <dc:format>image/svg+xml</dc:format>
        <dc:type
           rdf:resource="http://purl.org/dc/dcmitype/StillImage" />
        <dc:title />
      </cc:Work>
    </rdf:RDF>
  </metadata>
  <defs
     id="defs6" />
  <sodipodi:namedview
     pagecolor="#ffffff"
     bordercolor="#666666"
     borderopacity="1"
     objecttolerance="10"
     gridtolerance="10"
     guidetolerance="10"
     inkscape:pageopacity="0"
     inkscape:pageshadow="2"
     inkscape:window-width="1680"
     inkscape:window-height="1027"
     id="namedview4"
     showgrid="false"
     showguides="true"
     inkscape:guide-bbox="true"
     inkscape:zoom="29.857056"
     inkscape:cx="13.848216"
     inkscape:cy="100.71129"
     inkscape:window-x="-2"
     inkscape:window-y="-5"
     inkscape:window-maximized="1"
     inkscape:current-layer="svg2">
    <sodipodi:guide
       orientation="1,0"
       position="83.411698,101.21796"
       id="guide3797" />
    <sodipodi:guide
       orientation="1,0"
       position="63.69252,101.21796"
       id="guide3799" />
    <sodipodi:guide
       orientation="1,0"
       position="41.536333,104.83643"
       id="guide3801" />
    <sodipodi:guide
       orientation="1,0"
       position="40.839415,105.01564"
       id="guide3803" />
    <sodipodi:guide
       orientation="0,1"
       position="24.503906,100.30078"
       id="guide2999" />
    <sodipodi:guide
       orientation="0,1"
       position="24.421875,99.699219"
       id="guide3001" />
    <sodipodi:guide
       orientation="1,0"
       position="0,95.086402"
       id="guide3003" />
  </sodipodi:namedview>
  <path
     style="fill:#000000;fill-opacity:1;stroke:none"
     d="m -0.00573952,-2.0609553 c -0.3013021,0.00553 -0.6311141,0.080117 -0.9849339,0.2262686 C -1.9619962,-1.4334628 -2.6149402,0.42535143 -1.1903222,1.5194125 0.02541498,2.4530599 1.231481,1.6868241 1.8842688,0.49454886 l 0.3992975,0.2129587 0.3061281,-0.27950829 -0.05324,0.70542563 c -0.00638,0.3236231 0.2313179,0.3709442 0.2528884,-0.02662 l 0.079859,-0.65218593 0.1330992,0 C 3.434165,1.4123851 4.1091666,1.4579513 4.8257605,1.3863133 l -0.093169,0.4126075 0.075391,0.2866673 C 6.5873314,0.88204417 8.2316484,0.70913235 10.010998,0.50708483 l 7.405944,-0.20630383 0.0022,0.52131962 c 0.0016,0.21709008 0.293463,0.20081898 0.292818,0 l -0.0022,-0.52131962 5.25654,0 c -0.104912,0.313565 -0.0462,0.59352281 0.241091,0.7723123 l -0.02662,0.4658471 c -0.06285,0.206026 0.04962,0.251433 0.159718,0.3061281 0.187542,-0.053241 0.256363,-0.1507607 0.199649,-0.2928182 l 0.05324,-0.1996488 c 0.397419,0.1019498 0.844229,0.2290652 1.197892,-0.1064793 0.157389,-0.03317 0.30102,-0.049989 0.306129,0.1996488 0,0 0.339753,0.1489458 0.226268,-0.1996488 -0.260574,-0.80038099 1.18853,-1.05270474 1.423526,-0.93791214 0.128135,0 0.474914,0.044588 0.372677,0.35936773 -0.03992,0.15088887 0.04752,0.38380341 0.332748,0.31943805 C 28.003946,0.75153847 27.433826,0.61027081 27.24138,0.300781 l 8.303668,0 c 0.476499,0 0.425608,-0.601561 -0.01862,-0.601561 l -8.229182,0 0.341712,-0.20291491 c 0.148581,-0.146418 0.131251,-0.2972261 -0.05324,-0.4658471 -0.157051,-0.056556 -0.363102,-0.090082 -0.439228,0.1996487 0.01095,0.1121964 0.100815,0.220552 0.01331,0.332748 -0.614676,0.6232849 -1.244135,0.2423388 -1.836769,-0.4126075 C 25.28478,-1.0153478 25.190045,-1.191324 25.29641,-1.3155999 25.35496,-1.4366448 25.26259,-1.573285 25.123381,-1.4486991 l -0.186338,0.3726777 c -0.416682,-0.2812609 -0.888618,-0.4216944 -1.504021,-0.1730289 l -0.02662,-0.2129587 c 0.23207,-0.2195698 0.0051,-0.3143573 -0.09317,-0.3061281 -0.142874,0.017433 -0.189651,0.1114174 -0.199649,0.2395785 l 0.03993,0.62556606 c -0.23596,0.2696368 -0.225478,0.28887534 -0.133685,0.60221254 l -5.316873,0 0.0068,-0.58890254 c -0.0621,-0.11440016 -0.208512,-0.1076417 -0.292818,0 l 0,0.58890254 -7.4470448,-0.24356371 C 7.969065,-0.67794001 6.010496,-0.7837423 4.8006303,-2.0652314 l 0.01182,0.7629414 C 3.9688107,-1.4423074 3.4046361,-1.1702735 3.0023018,-0.31735614 L 2.8958225,-1.2357404 C 2.8702459,-1.3737649 2.7133918,-1.400067 2.642934,-1.2490501 l -0.05324,0.93169416 -0.2928182,-0.2928181 -0.2928181,0.1730289 C 1.5597521,-1.4870087 0.89816567,-2.0775494 -0.00573952,-2.0609553 z M 24.094351,-0.99469974 c 0.703064,0.00141 1.217079,0.8985059 1.894178,1.1431908 C 25.131639,0.37831899 24.790187,1.3604885 23.954743,1.1062202 23.683579,1.0446246 23.065996,0.83225872 23.539504,0.300781 l 0.392497,0 c 0.175934,-0.1121052 0.143099,-0.4894559 2.92e-4,-0.601561 l -0.43952,0 c -0.193842,-0.60380634 0.15517,-0.7109329 0.601578,-0.69391974 z M 4.331804,-0.7596589 c 1.2485938,0.024086 2.0953656,0.35115339 3.3439612,0.73363139 C 6.4914773,0.32109429 5.9086792,0.92576975 4.4441453,0.85252343 3.0220778,0.69574155 3.4711168,-0.7570247 4.331804,-0.7596589 z m -4.32423362,0.26927386 c 0.2664287,0 0.49246692,0.2127287 0.49246692,0.4791571 0,0.2664287 -0.22603822,0.49246688 -0.49246692,0.49246688 -0.2664288,0 -0.4791571,-0.22603818 -0.4791571,-0.49246688 0,-0.2664284 0.2127283,-0.4791571 0.4791571,-0.4791571 z"
     id="path2987"
     inkscape:connector-curvature="0"
     sodipodi:nodetypes="ssscccccccccccccsccccccccccccccccccccccccccccccccccccccccccccsccccccccccccsssss" />
</svg>
